<svg id="new-document" xmlns="http://www.w3.org/2000/svg" width="32.871" height="32.871" viewBox="0 0 32.871 32.871">
  <path id="Path_5903" data-name="Path 5903" d="M29.887,6.5a3.852,3.852,0,1,0-5.588,0,5.818,5.818,0,0,0-1.621,1.333H.963A.963.963,0,0,0,0,8.8V31.908a.963.963,0,0,0,1.644.681l3.57-3.57h19.5a.963.963,0,0,0,.963-.963V13.482h6.228a.963.963,0,0,0,.963-.963v-.963A5.782,5.782,0,0,0,29.887,6.5ZM27.093,1.926a1.926,1.926,0,1,1-1.926,1.926A1.928,1.928,0,0,1,27.093,1.926ZM23.755,27.093H4.815a.963.963,0,0,0-.681.282L1.926,29.583V9.759H21.6a5.754,5.754,0,0,0-.287,1.8v.963a.963.963,0,0,0,.963.963h1.477Zm-.514-15.537a3.852,3.852,0,0,1,7.7,0Z" fill="#c8d2e2"/>
  <path id="Path_5904" data-name="Path 5904" d="M253.273,5.093h1.273V6.366a1.273,1.273,0,1,0,2.547,0V5.093h1.273a1.273,1.273,0,0,0,0-2.547h-1.273V1.273a1.273,1.273,0,1,0-2.547,0V2.547h-1.273a1.273,1.273,0,1,0,0,2.547Z" transform="translate(-236.933 0)" fill="#c8d2e2"/>
  <path id="Path_5905" data-name="Path 5905" d="M104.855,182H93.82a3.82,3.82,0,1,0,0,7.64h11.035a3.82,3.82,0,1,0,0-7.64Zm0,5.093H93.82a1.273,1.273,0,1,1,0-2.547h11.035a1.273,1.273,0,0,1,0,2.547Z" transform="translate(-85.624 -171.118)" fill="#c8d2e2"/>
  <path id="Path_5906" data-name="Path 5906" d="M111.553,302H96.273a1.273,1.273,0,1,0,0,2.547h15.279a1.273,1.273,0,1,0,0-2.547Z" transform="translate(-90.267 -283)" fill="#c8d2e2"/>
  <path id="Path_5907" data-name="Path 5907" d="M111.553,362H96.273a1.273,1.273,0,1,0,0,2.547h15.279a1.273,1.273,0,1,0,0-2.547Z" transform="translate(-90.267 -339.225)" fill="#c8d2e2"/>
</svg>
