<svg id="car-three" xmlns="http://www.w3.org/2000/svg" width="43.569" height="24.099" viewBox="0 0 43.569 24.099">
  <path id="Path_5901" data-name="Path 5901" d="M42.9,6.267A26.9,26.9,0,0,0,31.847,3.4,21.94,21.94,0,0,0,10.77,2.089L8.613,3.1,0,4.826V9.584L.206,9.9a9.135,9.135,0,0,0,5.084,3.838,4.453,4.453,0,0,0,8.345.375h16.3a4.453,4.453,0,0,0,8.207,0h5.427V6.628ZM11.432,12.384a1.9,1.9,0,1,1-1.9-1.9A1.9,1.9,0,0,1,11.432,12.384Zm24.508,0a1.9,1.9,0,1,1-1.9-1.9A1.9,1.9,0,0,1,35.939,12.384Zm5.077-.823h-2.6a4.452,4.452,0,0,0-8.752,0H13.907a4.453,4.453,0,0,0-8.618-.533A6.6,6.6,0,0,1,2.553,8.813V6.919L9.419,5.546,11.856,4.4A19.447,19.447,0,0,1,19.6,2.56V5.207h-4.17V7.76H26.323V5.207h-4.17V2.66a19.433,19.433,0,0,1,8.6,3.075l.319.209h.38a25.11,25.11,0,0,1,9.559,2.229Zm0,0" transform="translate(0 0)" fill="#109cf6"/>
  <path id="Path_5902" data-name="Path 5902" d="M41.016,198.608h-5.7v-2.354H32.762v2.354H22.154v-3.262H19.6v3.262H10.807v-2.354H8.254v2.354h-5.7v-5.077H0v7.63H43.569v-5.47H41.016Zm0,0" transform="translate(0 -177.062)" fill="#858e9f"/>
</svg>
