<svg id="car" xmlns="http://www.w3.org/2000/svg" width="35.981" height="16.468" viewBox="0 0 35.981 16.468">
  <g id="Group_10528" data-name="Group 10528" transform="translate(4.797 10.471)">
    <g id="Group_10527" data-name="Group 10527" transform="translate(0 0)">
      <path id="Path_5157" data-name="Path 5157" d="M71.264,287.834a3,3,0,1,0,3,3A3,3,0,0,0,71.264,287.834Zm0,4.8a1.8,1.8,0,1,1,1.8-1.8A1.8,1.8,0,0,1,71.264,292.632Z" transform="translate(-68.266 -287.834)" fill="#c8d2e2"/>
    </g>
  </g>
  <g id="Group_10530" data-name="Group 10530" transform="translate(0 0)">
    <g id="Group_10529" data-name="Group 10529" transform="translate(0)">
      <path id="Path_5158" data-name="Path 5158" d="M35.381,149.3v-3.6a.6.6,0,0,0-.41-.569l-3.383-1.128a9.2,9.2,0,0,0-6.9-4.89l-.022,0c-7.149-.988-12.516.624-15.962,4.794a13.858,13.858,0,0,0-6.723,1.559,2.936,2.936,0,0,0-1.315,2.347L.6,149.3a.6.6,0,0,0-.6.6v2.4a.6.6,0,0,0,.6.6H3a.6.6,0,0,0,.6-.606s0-.006,0-.01a4.2,4.2,0,0,1,8.395.016.545.545,0,0,0,.6.6H23.387a.6.6,0,0,0,.6-.606s0-.006,0-.01a4.2,4.2,0,0,1,8.395.016.545.545,0,0,0,.6.6h2.4a.6.6,0,0,0,.6-.6v-2.4A.6.6,0,0,0,35.381,149.3Zm-16.191-5.7a.3.3,0,0,1-.3.3H11.07a.3.3,0,0,1-.2-.527,13.172,13.172,0,0,1,7.988-3.27.306.306,0,0,1,.33.3Zm7.2,0a.3.3,0,0,1-.3.3H20.689a.3.3,0,0,1-.3-.3v-3.274a.3.3,0,0,1,.3-.3,27.578,27.578,0,0,1,3.806.272,10.1,10.1,0,0,1,1.731.458.3.3,0,0,1,.194.287Zm3.13.3H27.894a.3.3,0,0,1-.3-.3l.016-1.625a.3.3,0,0,1,.485-.236,7.929,7.929,0,0,1,1.668,1.679A.3.3,0,0,1,29.524,143.907Z" transform="translate(0 -138.833)" fill="#c8d2e2"/>
    </g>
  </g>
  <g id="Group_10532" data-name="Group 10532" transform="translate(25.187 10.471)">
    <g id="Group_10531" data-name="Group 10531" transform="translate(0 0)">
      <path id="Path_5159" data-name="Path 5159" d="M361.4,287.834a3,3,0,1,0,3,3A3,3,0,0,0,361.4,287.834Zm0,4.8a1.8,1.8,0,1,1,1.8-1.8A1.8,1.8,0,0,1,361.4,292.632Z" transform="translate(-358.4 -287.834)" fill="#c8d2e2"/>
    </g>
  </g>
</svg>
