<svg xmlns="http://www.w3.org/2000/svg" width="15.05" height="18.146" viewBox="0 0 15.05 18.146">
  <g id="E1NxeC.tif" transform="translate(-1758.314 -3072.077)">
    <g id="Group_269" data-name="Group 269" transform="translate(1758.314 3070.6)">
      <path id="Path_561" data-name="Path 561" d="M1765.759,3130.244a7.456,7.456,0,1,1,7.468-7.44A7.461,7.461,0,0,1,1765.759,3130.244Zm.017-1.767a5.69,5.69,0,1,0-5.7-5.693A5.69,5.69,0,0,0,1765.776,3128.478Z" transform="translate(-1758.314 -3110.622)" fill="#858e9f"/>
      <path id="Path_562" data-name="Path 562" d="M1801.353,3072.875c-.175,0-.342,0-.51,0a.581.581,0,0,1-.623-.624q0-.513,0-1.027a.575.575,0,0,1,.621-.623h3.31a.576.576,0,0,1,.625.62q0,.513,0,1.026a.583.583,0,0,1-.634.628c-.163,0-.326,0-.5,0-.009.035-.017.062-.022.089a.532.532,0,0,1-.51.468q-.606.021-1.213,0C1801.593,3073.424,1801.425,3073.242,1801.353,3072.875Z" transform="translate(-1795.041 -3069.123)" fill="#858e9f"/>
      <path id="Path_563" data-name="Path 563" d="M1875.266,3109.753l-1.8-1.788,1.135-1.136,1.789,1.795Z" transform="translate(-1861.342 -3103.014)" fill="#858e9f"/>
      <path id="Path_564" data-name="Path 564" d="M1818.851,3145.59a1.372,1.372,0,1,1-2.1-1.183.276.276,0,0,0,.158-.254c.043-.958.1-1.914.147-2.871a.459.459,0,0,1,.436-.494.47.47,0,0,1,.447.507c.041.938.083,1.876.119,2.815a.324.324,0,0,0,.169.31A1.361,1.361,0,0,1,1818.851,3145.59Z" transform="matrix(-0.809, 0.588, -0.588, -0.809, 3326.745, 1488.614)" fill="#858e9f"/>
    </g>
  </g>
</svg>
