<?xml version="1.0" encoding="iso-8859-1"?>
<!-- Generator: Adobe Illustrator 19.0.0, SVG Export Plug-In . SVG Version: 6.00 Build 0)  -->
<svg version="1.1" id="Capa_1" xmlns="http://www.w3.org/2000/svg" xmlns:xlink="http://www.w3.org/1999/xlink" x="0px" y="0px"
	 viewBox="0 0 504.986 504.986" style="enable-background:new 0 0 504.986 504.986;" xml:space="preserve">
<g>
	<g>
		<path d="M434.849,0H70.137C31.562,0,0,31.562,0,70.137v364.712c0,38.575,31.562,70.137,70.137,70.137h364.712
			c38.575,0,70.137-31.562,70.137-70.137V70.137C504.986,31.562,473.425,0,434.849,0z M476.932,238.466H460.8
			c-7.715,0-14.027,6.312-14.027,14.027c0,7.715,6.312,14.027,14.027,14.027h16.132v168.329c0,23.145-18.937,42.082-42.082,42.082
			H266.521V460.8c0-7.715-6.312-14.027-14.027-14.027c-7.715,0-14.027,6.312-14.027,14.027v16.132H70.137
			c-23.145,0-42.082-18.937-42.082-42.082V266.521h16.132c7.715,0,14.027-6.312,14.027-14.027c0-7.715-6.312-14.027-14.027-14.027
			H28.055v-82.06h21.041c7.715,0,14.027-6.312,14.027-14.027c0-7.715-6.312-14.027-14.027-14.027H28.055v-28.055h56.11
			c7.715,0,14.027-6.312,14.027-14.027s-6.312-14.027-14.027-14.027h-56.11v-2.104c0-23.145,18.937-42.082,42.082-42.082h168.329
			v16.131c0,7.715,6.312,14.027,14.027,14.027c7.715,0,14.027-6.312,14.027-14.027V28.055h168.329
			c23.145,0,42.082,18.937,42.082,42.082V238.466z"/>
	</g>
</g>
<g>
	<g>
		<path d="M252.493,93.282c-7.715,0-14.027,6.312-14.027,14.027v131.156h-68.734c-7.715,0-14.027,6.312-14.027,14.027
			c0,7.715,6.312,14.027,14.027,14.027h82.762c7.715,0,14.027-6.312,14.027-14.027V107.31
			C266.521,99.595,260.208,93.282,252.493,93.282z"/>
	</g>
</g>
<g>
</g>
<g>
</g>
<g>
</g>
<g>
</g>
<g>
</g>
<g>
</g>
<g>
</g>
<g>
</g>
<g>
</g>
<g>
</g>
<g>
</g>
<g>
</g>
<g>
</g>
<g>
</g>
<g>
</g>
</svg>
