<svg xmlns="http://www.w3.org/2000/svg" width="30" height="31" viewBox="0 0 30 31">
  <g id="Group_1419" data-name="Group 1419" transform="translate(-0.5 0.355)">
    <rect id="Rectangle_402" data-name="Rectangle 402" width="30" height="31" transform="translate(0.5 -0.355)" fill="#fff" opacity="0"/>
    <g id="trash" transform="translate(6.563 4.192)">
      <path id="Path_386" data-name="Path 386" d="M126.719,1.254h3.471v.584h1.254V1.172A1.173,1.173,0,0,0,130.273,0h-3.636a1.173,1.173,0,0,0-1.171,1.172v.666h1.254Zm0,0" transform="translate(-120.375)" fill="#858e9f"/>
      <path id="Path_387" data-name="Path 387" d="M52.811,167.75H41.042a.552.552,0,0,0-.55.6l.984,12.167a1.307,1.307,0,0,0,1.3,1.2h8.3a1.307,1.307,0,0,0,1.3-1.2l.984-12.167A.552.552,0,0,0,52.811,167.75Zm-8.92,12.668h-.039a.627.627,0,0,1-.625-.588l-.617-9.988a.627.627,0,1,1,1.251-.077l.616,9.988A.627.627,0,0,1,43.892,180.418Zm3.669-.626a.627.627,0,0,1-1.254,0V169.8a.627.627,0,1,1,1.254,0Zm3.682-9.951-.589,9.988a.627.627,0,0,1-.625.59h-.037a.627.627,0,0,1-.589-.663l.589-9.988a.627.627,0,0,1,1.252.074Zm0,0" transform="translate(-38.847 -160.945)" fill="#858e9f"/>
      <path id="Path_388" data-name="Path 388" d="M16.132,77.99l-.412-1.234a.8.8,0,0,0-.756-.545H1.2a.8.8,0,0,0-.756.545L.027,77.99a.518.518,0,0,0,.491.681H15.642a.51.51,0,0,0,.274-.079A.516.516,0,0,0,16.132,77.99Zm0,0" transform="translate(-0.001 -73.119)" fill="#858e9f"/>
    </g>
  </g>
</svg>
