<svg xmlns="http://www.w3.org/2000/svg" width="13.542" height="21.427" viewBox="0 0 13.542 21.427">
  <g id="flag" transform="translate(-87.479)">
    <g id="Group_10645" data-name="Group 10645" transform="translate(87.479 0)">
      <path id="Path_5914" data-name="Path 5914" d="M97.368,7.417l3.555-3.885a.353.353,0,0,0,.071-.377.377.377,0,0,0-.33-.212H89.245s-.141,0-.141.024V2.543a1.177,1.177,0,0,0,.989-1.248A1.3,1.3,0,0,0,88.821,0a1.342,1.342,0,0,0-1.342,1.3A1.389,1.389,0,0,0,88.4,2.543V21.074a.353.353,0,0,0,.706,0V11.891h11.561a.33.33,0,0,0,.33-.212.377.377,0,0,0-.071-.377Z" transform="translate(-87.479 0)" fill="#858e9f"/>
    </g>
  </g>
</svg>
