<svg xmlns="http://www.w3.org/2000/svg" width="22.587" height="22.521" viewBox="0 0 22.587 22.521">
  <g id="fuel" transform="translate(-0.001 -0.063)">
    <path id="Path_5148" data-name="Path 5148" d="M.683,2.259,6.705,4.033a1.416,1.416,0,0,1,.51.273L9.047,5.831l1.541-1.653L8.057,2.122a.619.619,0,0,0-.216-.114L1.322.088a.621.621,0,0,0-.771.42l-.288.981a.62.62,0,0,0,.419.77Zm0,0" transform="translate(-0.227)" fill="#696969"/>
    <path id="Path_5149" data-name="Path 5149" d="M214.116,105.51a.4.4,0,0,1,.138.233l2.8,14.565a1.643,1.643,0,0,0,2.277,1.193l4.19-1.851a.4.4,0,0,1,.536.217.538.538,0,0,0,.7.294l2.042-.838a.538.538,0,0,0,.294-.7l-3.811-9.3a.4.4,0,0,1,.069-.417l.438-.506a.621.621,0,0,0-.063-.874l-4.253-3.684a.621.621,0,0,0-.876.065l-.947,1.1a.4.4,0,0,1-.565.046l-1.557-1.3-1.545,1.657Zm5.161,14.7a.916.916,0,0,1-1.274-.7l-.944-6.234a1.925,1.925,0,0,1,.3-1.354l1.051.831a2.641,2.641,0,0,1,.883,1.255l1.815,5.394Zm-.645-9.131.6-.109a1.948,1.948,0,0,1,2.178,1.29l1.936,5.751a.4.4,0,0,1-.219.5l-1.28.566-1.792-5.321a3.435,3.435,0,0,0-1.152-1.635l-.972-.77a1.948,1.948,0,0,1,.7-.271Zm-2.2-2.827.571,2.42a.4.4,0,0,1-.3.484.383.383,0,0,1-.093.011.4.4,0,0,1-.392-.31l-.571-2.419a.4.4,0,0,1,.786-.186Zm-1.129-2.415a.4.4,0,0,1,.49.291l.2.79a.4.4,0,0,1-.291.49.386.386,0,0,1-.1.013.4.4,0,0,1-.39-.3l-.2-.789a.4.4,0,0,1,.291-.492Zm0,0" transform="translate(-204.55 -99.057)" fill="#696969"/>
    <path id="Path_5150" data-name="Path 5150" d="M2.018,151a1.95,1.95,0,0,0,2.016-2.016c0-.933-1.305-3.01-2.016-3.831-.711.82-2.016,2.9-2.016,3.831A1.95,1.95,0,0,0,2.018,151Zm0,0" transform="translate(0 -138.687)" fill="#696969"/>
  </g>
</svg>
