<svg xmlns="http://www.w3.org/2000/svg" width="18.943" height="18.005" viewBox="0 0 18.943 18.005">
  <g id="home-run" transform="translate(0 -12.676)">
    <g id="Group_10596" data-name="Group 10596" transform="translate(0 12.675)">
      <g id="Group_10595" data-name="Group 10595">
        <path id="Path_5891" data-name="Path 5891" d="M18.625,20.675l-8.5-7.745a.967.967,0,0,0-1.309,0l-8.5,7.745a.971.971,0,0,0,.654,1.689H2.33v7.759a.557.557,0,0,0,.557.557H7.546a.557.557,0,0,0,.557-.557V25.413h2.738v4.711a.557.557,0,0,0,.557.557h4.658a.557.557,0,0,0,.557-.557V22.364h1.358a.971.971,0,0,0,.654-1.689Z" transform="translate(0 -12.675)" fill="#565e6f"/>
      </g>
    </g>
    <g id="Group_10598" data-name="Group 10598" transform="translate(12.727 13.787)">
      <g id="Group_10597" data-name="Group 10597" transform="translate(0 0)">
        <path id="Path_5892" data-name="Path 5892" d="M347.714,42.73h-3.741l4.3,3.908V43.287A.557.557,0,0,0,347.714,42.73Z" transform="translate(-343.973 -42.73)" fill="#565e6f"/>
      </g>
    </g>
  </g>
</svg>
