<svg xmlns="http://www.w3.org/2000/svg" width="33.275" height="33.275" viewBox="0 0 33.275 33.275">
  <g id="question" opacity="0.52">
    <path id="Path_5881" data-name="Path 5881" d="M219.043,208.287a10.789,10.789,0,0,0-5.917-9.607,14.671,14.671,0,0,1-14.446,14.446,10.759,10.759,0,0,0,15.08,4.421L219,219l-1.448-5.236a10.717,10.717,0,0,0,1.5-5.473Zm0,0" transform="translate(-185.768 -185.768)" fill="#fff"/>
    <path id="Path_5882" data-name="Path 5882" d="M25.411,12.706A12.706,12.706,0,1,0,1.762,19.164l-1.715,6.2,6.2-1.715A12.708,12.708,0,0,0,25.411,12.706ZM10.756,9.749H8.806a3.9,3.9,0,1,1,6.531,2.878L13.68,14.142v1.52h-1.95V13.284l2.29-2.1a1.93,1.93,0,0,0,.635-1.439,1.95,1.95,0,0,0-3.9,0Zm.975,7.864h1.95v1.95h-1.95Zm0,0" fill="#fff"/>
  </g>
</svg>
