<svg id="archive" xmlns="http://www.w3.org/2000/svg" width="24.569" height="24.569" viewBox="0 0 24.569 24.569">
  <g id="Group_36" data-name="Group 36" transform="translate(0 0)">
    <g id="Group_35" data-name="Group 35">
      <path id="Path_19" data-name="Path 19" d="M18.427,0H1.228A1.231,1.231,0,0,0,0,1.228v17.2a1.161,1.161,0,0,0,1.228,1.228H2.457V3.685A1.161,1.161,0,0,1,3.685,2.457h15.97V1.228A1.161,1.161,0,0,0,18.427,0Z" transform="translate(0 0)" fill="#c8d2e2"/>
    </g>
  </g>
  <g id="Group_38" data-name="Group 38" transform="translate(4.914 4.914)">
    <g id="Group_37" data-name="Group 37">
      <path id="Path_20" data-name="Path 20" d="M120.827,102.4h-17.2a1.161,1.161,0,0,0-1.228,1.228v17.2a1.161,1.161,0,0,0,1.228,1.228h17.2a1.161,1.161,0,0,0,1.228-1.228v-17.2A1.161,1.161,0,0,0,120.827,102.4Zm-7.371,15.97h-7.371a1.228,1.228,0,0,1,0-2.457h7.371a1.228,1.228,0,1,1,0,2.457Zm4.914-4.914H106.085a1.228,1.228,0,1,1,0-2.457H118.37a1.228,1.228,0,0,1,0,2.457Zm0-4.914H106.085a1.228,1.228,0,0,1,0-2.457H118.37a1.228,1.228,0,0,1,0,2.457Z" transform="translate(-102.4 -102.4)" fill="#c8d2e2"/>
    </g>
  </g>
</svg>
