<svg xmlns="http://www.w3.org/2000/svg" width="28.972" height="28.177" viewBox="0 0 28.972 28.177">
  <g id="search_1_" data-name="search (1)" transform="matrix(-0.035, 0.999, -0.999, -0.035, 28.972, 0.826)" opacity="0.53">
    <g id="Group_10563" data-name="Group 10563" transform="translate(4.211 6.071)">
      <g id="Group_10562" data-name="Group 10562">
        <path id="Path_5873" data-name="Path 5873" d="M80.5,111.279a1.034,1.034,0,0,0-1.463,0,7.073,7.073,0,0,0-2.023,5.733,1.035,1.035,0,0,0,1.029.932c.035,0,.069,0,.1-.005a1.035,1.035,0,0,0,.927-1.133,5.011,5.011,0,0,1,1.427-4.064A1.034,1.034,0,0,0,80.5,111.279Z" transform="translate(-76.978 -110.975)" fill="#fff"/>
      </g>
    </g>
    <g id="Group_10565" data-name="Group 10565" transform="translate(0)">
      <g id="Group_10564" data-name="Group 10564">
        <path id="Path_5874" data-name="Path 5874" d="M11.832,0A11.832,11.832,0,1,0,23.665,11.832,11.846,11.846,0,0,0,11.832,0Zm0,21.6A9.763,9.763,0,1,1,21.6,11.832,9.773,9.773,0,0,1,11.832,21.6Z" transform="translate(0)" fill="#fff"/>
      </g>
    </g>
    <g id="Group_10567" data-name="Group 10567" transform="translate(18.421 18.421)">
      <g id="Group_10566" data-name="Group 10566">
        <path id="Path_5875" data-name="Path 5875" d="M346,344.533l-7.52-7.52a1.035,1.035,0,1,0-1.463,1.463l7.52,7.52A1.035,1.035,0,0,0,346,344.533Z" transform="translate(-336.708 -336.71)" fill="#fff"/>
      </g>
    </g>
  </g>
</svg>
