<svg id="support" xmlns="http://www.w3.org/2000/svg" width="33.94" height="33.94" viewBox="0 0 33.94 33.94">
  <path id="Path_5895" data-name="Path 5895" d="M5.969,26.247a2.768,2.768,0,0,0-1.337.341A15.652,15.652,0,0,1,20.085,1.635a.663.663,0,0,0,.263-1.3A17.1,17.1,0,0,0,16.97,0,16.97,16.97,0,0,0,3.651,27.487a2.785,2.785,0,1,0,2.318-1.24ZM7,30.062a1.458,1.458,0,1,1,.427-1.031A1.448,1.448,0,0,1,7,30.062Zm0,0" transform="translate(0 0.001)" fill="#fd5e7c"/>
  <path id="Path_5896" data-name="Path 5896" d="M214.68,36.378a2.778,2.778,0,1,0-.98.9,15.651,15.651,0,0,1-15.424,24.959.663.663,0,0,0-.26,1.3,17.108,17.108,0,0,0,3.346.33A16.97,16.97,0,0,0,214.68,36.378Zm-3.348-.512a1.459,1.459,0,1,1,1.031.427A1.449,1.449,0,0,1,211.332,35.866Zm0,0" transform="translate(-184.392 -29.926)" fill="#fd5e7c"/>
  <path id="Path_5897" data-name="Path 5897" d="M83.314,97.467a.663.663,0,0,0,.663.663h4.145a.663.663,0,0,0,.663-.663V96.181a10.381,10.381,0,0,0,2.488-1.031l.907.907a.663.663,0,0,0,.938,0l2.93-2.932a.663.663,0,0,0,0-.937l-.906-.906a10.381,10.381,0,0,0,1.031-2.488h1.28a.663.663,0,0,0,.663-.663V83.986a.663.663,0,0,0-.663-.663h-1.28a10.383,10.383,0,0,0-1.031-2.488l.9-.9a.663.663,0,0,0,0-.938l-2.932-2.93a.663.663,0,0,0-.937,0l-.9.9a10.381,10.381,0,0,0-2.488-1.031V74.663A.663.663,0,0,0,88.122,74H83.977a.663.663,0,0,0-.663.663v1.273a10.372,10.372,0,0,0-2.488,1.031l-.9-.9a.663.663,0,0,0-.937,0L76.057,79a.663.663,0,0,0,0,.938l.9.9a10.379,10.379,0,0,0-1.031,2.488H74.649a.663.663,0,0,0-.663.663l0,4.145a.663.663,0,0,0,.663.663h1.28a10.381,10.381,0,0,0,1.031,2.488l-.906.906a.663.663,0,0,0,0,.937l2.93,2.932a.663.663,0,0,0,.469.194h0a.663.663,0,0,0,.469-.194l.907-.907a10.39,10.39,0,0,0,2.488,1.031Zm-2.228-3.71a.663.663,0,0,0-.829.088l-.807.807-1.993-1.994.806-.807a.663.663,0,0,0,.088-.828,9.074,9.074,0,0,1-1.256-3.03.663.663,0,0,0-.648-.524H75.31l0-2.819h1.137a.663.663,0,0,0,.648-.524,9.074,9.074,0,0,1,1.256-3.03.663.663,0,0,0-.088-.828l-.8-.8,1.994-1.993.8.8a.663.663,0,0,0,.829.088,9.07,9.07,0,0,1,3.03-1.256.663.663,0,0,0,.524-.648V75.326h2.819v1.132a.663.663,0,0,0,.524.648,9.078,9.078,0,0,1,3.03,1.256.662.662,0,0,0,.828-.088l.8-.8,1.994,1.993-.8.8a.663.663,0,0,0-.088.829A9.08,9.08,0,0,1,95,84.126a.663.663,0,0,0,.648.524H96.79v2.819H95.651a.663.663,0,0,0-.648.524,9.072,9.072,0,0,1-1.256,3.03.663.663,0,0,0,.088.829l.806.806-1.993,1.994-.807-.807a.663.663,0,0,0-.829-.088,9.08,9.08,0,0,1-3.03,1.256.663.663,0,0,0-.524.648V96.8H84.64V95.66a.663.663,0,0,0-.524-.648,9.074,9.074,0,0,1-3.03-1.256Zm0,0" transform="translate(-69.08 -69.094)" fill="#565e6f"/>
  <path id="Path_5898" data-name="Path 5898" d="M184.326,178.849a5.477,5.477,0,1,0-5.477,5.477A5.484,5.484,0,0,0,184.326,178.849Zm-9.629,0A4.152,4.152,0,1,1,178.849,183,4.156,4.156,0,0,1,174.7,178.849Zm0,0" transform="translate(-161.878 -161.878)" fill="#565e6f"/>
  <path id="Path_5899" data-name="Path 5899" d="M338.741,19.135a.663.663,0,1,0-.468-.194A.668.668,0,0,0,338.741,19.135Zm0,0" transform="translate(-315.667 -16.628)" fill="#fd5e7c"/>
  <path id="Path_5900" data-name="Path 5900" d="M155.022,474.359a.663.663,0,1,0,.469.194A.668.668,0,0,0,155.022,474.359Zm0,0" transform="translate(-144.127 -442.914)" fill="#fd5e7c"/>
</svg>
