<svg xmlns="http://www.w3.org/2000/svg" width="86.942" height="78.871" viewBox="0 0 86.942 78.871">
  <g id="Group_10697" data-name="Group 10697" opacity="0.26">
    <path id="Path_4374" data-name="Path 4374" d="M70.213,21.89a27.2,27.2,0,0,0-53.351-.017A19.041,19.041,0,0,0,19.055,59.83h13.6a2.72,2.72,0,1,0,0-5.44h-13.6a13.6,13.6,0,1,1,.161-27.2,2.72,2.72,0,0,0,2.7-2.42,21.761,21.761,0,0,1,43.234,0,2.883,2.883,0,0,0,2.864,2.42,13.6,13.6,0,1,1,0,27.2h-13.6a2.72,2.72,0,0,0,0,5.44h13.6a19.041,19.041,0,0,0,2.195-37.94Zm0,0" transform="translate(0.001 0)" fill="#7d7d7d"/>
    <path id="Path_4375" data-name="Path 4375" d="M196.132,208.34a2.72,2.72,0,0,0,3.914-3.779c-.022-.023-.044-.045-.067-.067l-11.536-11.539a2.721,2.721,0,0,0-3.847-.005l0,.005-11.536,11.539a2.72,2.72,0,1,0,3.78,3.913l.067-.067,6.9-6.9v34.236a2.72,2.72,0,1,0,5.44,0V201.442Zm0,0" transform="translate(-142.979 -159.527)" fill="#7d7d7d"/>
  </g>
</svg>
