<svg xmlns="http://www.w3.org/2000/svg" width="23.467" height="28.128" viewBox="0 0 23.467 28.128">
  <g id="user" transform="translate(0 0)" opacity="0.52">
    <path id="Path_5876" data-name="Path 5876" d="M93.807,13.549a6.555,6.555,0,0,0,4.79-1.985,6.555,6.555,0,0,0,1.985-4.79A6.556,6.556,0,0,0,98.6,1.985a6.773,6.773,0,0,0-9.58,0,6.555,6.555,0,0,0-1.985,4.79,6.555,6.555,0,0,0,1.985,4.79A6.557,6.557,0,0,0,93.807,13.549Zm0,0" transform="translate(-82.251 0)" fill="#fff"/>
    <path id="Path_5877" data-name="Path 5877" d="M23.41,255.358a16.733,16.733,0,0,0-.228-1.777,14,14,0,0,0-.437-1.787,8.827,8.827,0,0,0-.735-1.667,6.289,6.289,0,0,0-1.108-1.444,4.883,4.883,0,0,0-1.591-1,5.5,5.5,0,0,0-2.031-.368,2.062,2.062,0,0,0-1.1.467c-.33.215-.716.464-1.147.74a6.574,6.574,0,0,1-1.484.654,5.763,5.763,0,0,1-3.631,0,6.556,6.556,0,0,1-1.483-.654c-.427-.273-.813-.522-1.148-.74a2.059,2.059,0,0,0-1.1-.467,5.492,5.492,0,0,0-2.031.368,4.88,4.88,0,0,0-1.591,1,6.289,6.289,0,0,0-1.107,1.443,8.844,8.844,0,0,0-.735,1.667,14.036,14.036,0,0,0-.437,1.787,16.676,16.676,0,0,0-.228,1.778C.019,255.9,0,256.456,0,257.02a4.671,4.671,0,0,0,1.387,3.534,4.994,4.994,0,0,0,3.575,1.3H18.505a4.992,4.992,0,0,0,3.574-1.3,4.669,4.669,0,0,0,1.387-3.534c0-.567-.019-1.126-.057-1.661Zm0,0" transform="translate(0 -233.729)" fill="#fff"/>
  </g>
</svg>
