<svg aria-hidden="true" style="position: absolute; width: 0; height: 0; overflow: hidden;" version="1.1" xmlns="http://www.w3.org/2000/svg" xmlns:xlink="http://www.w3.org/1999/xlink">
<defs>
<symbol id="icon-add" viewBox="0 0 32 32">
<path fill="#fff" style="fill: var(--color1, #fff)" d="M23.794 14.306h-5.761c-0.187 0-0.339-0.152-0.339-0.339v0-5.76c0-0.010 0-0.023 0-0.035 0-0.936-0.759-1.695-1.695-1.695s-1.695 0.759-1.695 1.695c0 0.012 0 0.025 0 0.037l-0-0.002v5.76c0 0.187-0.152 0.339-0.339 0.339h-5.76c-0.010-0-0.023-0-0.035-0-0.936 0-1.695 0.759-1.695 1.695s0.759 1.695 1.695 1.695c0.012 0 0.025-0 0.037-0l-0.002 0h5.76c0.187 0 0.339 0.152 0.339 0.339v0 5.761c-0 0.010-0 0.023-0 0.035 0 0.936 0.759 1.695 1.695 1.695s1.695-0.759 1.695-1.695c0-0.012-0-0.025-0-0.037l0 0.002v-5.761c0-0.187 0.152-0.339 0.339-0.339v0h5.761c0.010 0 0.023 0 0.035 0 0.936 0 1.695-0.759 1.695-1.695s-0.759-1.695-1.695-1.695c-0.012 0-0.025 0-0.037 0l0.002-0z"></path>
<path fill="none" stroke="#707070" style="stroke: var(--color2, #707070)" stroke-linejoin="miter" stroke-linecap="butt" stroke-miterlimit="4" stroke-width="0.7273" d="M32 16c0 8.837-7.163 16-16 16s-16-7.163-16-16c0-8.837 7.163-16 16-16s16 7.163 16 16z"></path>
<path fill="none" stroke="#707070" style="stroke: var(--color2, #707070)" stroke-linejoin="miter" stroke-linecap="butt" stroke-miterlimit="4" stroke-width="0.7273" d="M31.636 16c0 8.636-7.001 15.636-15.636 15.636s-15.636-7.001-15.636-15.636c0-8.636 7.001-15.636 15.636-15.636s15.636 7.001 15.636 15.636z"></path>
</symbol>
<symbol id="icon-add-task" viewBox="0 0 32 32">
<path fill="#c8d2e2" style="fill: var(--color3, #c8d2e2)" d="M29.095 6.328c0.638-0.671 1.030-1.58 1.030-2.581 0-2.071-1.679-3.75-3.75-3.75s-3.75 1.679-3.75 3.75c0 1.001 0.392 1.91 1.031 2.583l-0.002-0.002c-0.616 0.346-1.138 0.779-1.571 1.29l-0.007 0.008h-21.14c0 0 0 0 0 0-0.518 0-0.937 0.42-0.937 0.937 0 0.001 0 0.003 0 0.004v-0 22.496c0 0 0 0 0 0 0 0.518 0.42 0.937 0.937 0.937 0.259 0 0.493-0.105 0.663-0.275l3.475-3.475h18.983c0.518 0 0.937-0.42 0.937-0.937v0-14.188h6.063c0.518 0 0.937-0.42 0.937-0.937v0-0.937c-0.001-2.107-1.159-3.943-2.874-4.907l-0.028-0.015zM26.375 1.875c1.035 0 1.875 0.839 1.875 1.875s-0.839 1.875-1.875 1.875c-1.035 0-1.875-0.839-1.875-1.875v0c0.001-1.035 0.84-1.874 1.875-1.875h0zM23.126 26.375h-18.438c-0 0-0 0-0 0-0.259 0-0.493 0.105-0.663 0.275l-2.15 2.149v-19.299h19.153c-0.177 0.522-0.279 1.122-0.279 1.747 0 0.002 0 0.004 0 0.006v-0 0.937c0 0.518 0.42 0.937 0.937 0.937v0h1.438zM22.625 11.25c0.067-2.018 1.719-3.629 3.748-3.629s3.681 1.611 3.748 3.623l0 0.006z"></path>
<path fill="#c8d2e2" style="fill: var(--color3, #c8d2e2)" d="M15.907 4.958h1.239v1.239c0 0.685 0.555 1.24 1.24 1.24s1.24-0.555 1.24-1.24v0-1.239h1.239c0.685 0 1.24-0.555 1.24-1.24s-0.555-1.24-1.24-1.24v0h-1.239v-1.239c0-0.685-0.555-1.24-1.24-1.24s-1.24 0.555-1.24 1.24v1.24h-1.239c-0.685 0-1.24 0.555-1.24 1.24s0.555 1.24 1.24 1.24v0z"></path>
<path fill="#c8d2e2" style="fill: var(--color3, #c8d2e2)" d="M18.721 10.594h-10.743c-2.054 0-3.719 1.665-3.719 3.719s1.665 3.719 3.719 3.719h10.743c2.054 0 3.719-1.665 3.719-3.719s-1.665-3.719-3.719-3.719v0zM18.721 15.552h-10.743c-0.685 0-1.24-0.555-1.24-1.24s0.555-1.24 1.24-1.24h10.743c0.685 0 1.24 0.555 1.24 1.24s-0.555 1.24-1.24 1.24v0z"></path>
<path fill="#c8d2e2" style="fill: var(--color3, #c8d2e2)" d="M20.722 18.497h-14.875c-0.685 0-1.24 0.555-1.24 1.24s0.555 1.24 1.24 1.24v0h14.874c0.685 0 1.24-0.555 1.24-1.24s-0.555-1.24-1.24-1.24v0z"></path>
<path fill="#c8d2e2" style="fill: var(--color3, #c8d2e2)" d="M20.722 22.172h-14.875c-0.685 0-1.24 0.555-1.24 1.24s0.555 1.24 1.24 1.24v0h14.874c0.685 0 1.24-0.555 1.24-1.24s-0.555-1.24-1.24-1.24v0z"></path>
</symbol>
<symbol id="icon-calender" viewBox="0 0 35 32">
<path fill="#fff" style="fill: var(--color1, #fff)" d="M30.514 2.548h-2.266v-1.348c0-0.663-0.537-1.2-1.2-1.2s-1.2 0.537-1.2 1.2v0 1.346h-16.648v-1.346c0-0.663-0.537-1.2-1.2-1.2s-1.2 0.537-1.2 1.2v0 1.346h-2.764c-0.004 0-0.008-0-0.012-0-2.22 0-4.019 1.797-4.024 4.016v21.4c0 2.229 1.807 4.037 4.036 4.038h26.478c2.228-0.003 4.033-1.808 4.036-4.036v-21.4c-0.002-2.218-1.801-4.016-4.020-4.016-0.006 0-0.011 0-0.017 0h0.001zM32.142 27.964c0 0.899-0.729 1.628-1.628 1.628v0h-26.478c-0.899 0-1.628-0.729-1.628-1.628v0-15.292h29.734zM2.4 10.266v-3.704c0.006-0.885 0.724-1.6 1.61-1.6 0.006 0 0.013 0 0.019 0h2.771v0.9c0 0.663 0.537 1.2 1.2 1.2s1.2-0.537 1.2-1.2v0-0.9h16.64v0.9c0 0.663 0.537 1.2 1.2 1.2s1.2-0.537 1.2-1.2v0-0.9h2.266c0.005-0 0.012-0 0.018-0 0.886 0 1.604 0.715 1.61 1.6v3.703z"></path>
</symbol>
<symbol id="icon-car" viewBox="0 0 70 32">
<path fill="#c8d2e2" style="fill: var(--color3, #c8d2e2)" d="M15.147 20.347c-3.22 0-5.829 2.61-5.829 5.829s2.61 5.83 5.829 5.83c3.22 0 5.829-2.61 5.829-5.829v0c0-3.22-2.61-5.829-5.829-5.829v0zM15.147 29.674c-1.932 0-3.498-1.566-3.498-3.498s1.566-3.498 3.498-3.498c1.932 0 3.498 1.566 3.498 3.498v0c-0.002 1.93-1.567 3.494-3.498 3.494 0 0 0 0 0 0v0z"></path>
<path fill="#c8d2e2" style="fill: var(--color3, #c8d2e2)" d="M68.751 20.339v-6.995c-0-0.512-0.33-0.946-0.788-1.103l-0.008-0.002-6.574-2.192c-2.657-5.068-7.539-8.659-13.312-9.491l-0.096-0.011h-0.043c-13.892-1.92-24.321 1.213-31.017 9.316-0.191-0.005-0.415-0.008-0.641-0.008-4.54 0-8.818 1.123-12.57 3.108l0.147-0.071c-1.497 1-2.487 2.658-2.555 4.551l-0 0.010-0.128 2.889c-0.644 0-1.166 0.522-1.166 1.166v0 4.664c0 0.644 0.522 1.166 1.166 1.166h4.664c0 0 0 0 0 0 0.644 0 1.166-0.522 1.166-1.166 0-0.004-0-0.008-0-0.012v0.001s0-0.012 0-0.019c0.164-4.378 3.753-7.865 8.156-7.865 4.414 0 8.009 3.504 8.157 7.882l0 0.013c-0.004 0.034-0.006 0.073-0.006 0.113 0 0.585 0.474 1.059 1.059 1.059 0.040 0 0.079-0.002 0.118-0.006l-0.005 0h20.971c0 0 0 0 0 0 0.644 0 1.166-0.522 1.166-1.166 0-0.004-0-0.008-0-0.012v0.001s0-0.012 0-0.019c0.164-4.378 3.753-7.865 8.156-7.865 4.414 0 8.010 3.504 8.157 7.882l0 0.013c-0.004 0.034-0.006 0.073-0.006 0.113 0 0.585 0.474 1.059 1.059 1.059 0.040 0 0.079-0.002 0.118-0.006l-0.005 0h4.664c0.644 0 1.166-0.522 1.166-1.166v0-4.664c0 0 0 0 0 0 0-0.644-0.522-1.166-1.166-1.166-0.001 0-0.001 0-0.002 0h0zM37.289 9.263c0 0.322-0.261 0.583-0.583 0.583v0h-15.196c-0.002 0-0.005 0-0.008 0-0.322 0-0.583-0.261-0.583-0.583 0-0.176 0.078-0.334 0.201-0.441l0.001-0.001c4.145-3.666 9.53-6.016 15.455-6.351l0.067-0.003c0.014-0.001 0.030-0.002 0.047-0.002 0.325 0 0.589 0.261 0.595 0.584v0.001zM51.28 9.263c0 0.322-0.261 0.583-0.583 0.583h-10.495c-0.322 0-0.583-0.261-0.583-0.583v0-6.362c0-0.322 0.261-0.583 0.583-0.583v0c2.614 0.006 5.178 0.198 7.685 0.563l-0.29-0.035c1.284 0.223 2.414 0.532 3.499 0.934l-0.136-0.044c0.222 0.086 0.377 0.297 0.377 0.545 0 0.004-0 0.009-0 0.013v-0.001zM57.362 9.846h-3.16c-0.322 0-0.583-0.261-0.583-0.583v0l0.031-3.158c0-0.322 0.261-0.583 0.583-0.583 0.136 0 0.261 0.047 0.361 0.125l-0.001-0.001c1.246 0.932 2.316 2.008 3.212 3.221l0.030 0.042c0.081 0.099 0.13 0.228 0.13 0.367 0 0.322-0.261 0.583-0.583 0.583-0.004 0-0.008-0-0.012-0h0.001z"></path>
<path fill="#c8d2e2" style="fill: var(--color3, #c8d2e2)" d="M54.772 20.347c-3.22 0-5.83 2.61-5.83 5.829s2.61 5.83 5.83 5.83c3.22 0 5.83-2.61 5.83-5.829v0c0-3.22-2.61-5.829-5.83-5.829v0zM54.772 29.674c-1.932 0-3.498-1.566-3.498-3.498s1.566-3.498 3.498-3.498c1.932 0 3.498 1.566 3.498 3.498v0c-0.002 1.93-1.567 3.494-3.498 3.494 0 0 0 0 0 0v0z"></path>
</symbol>
<symbol id="icon-car-three" viewBox="0 0 58 32">
<path fill="#109cf6" style="fill: var(--color4, #109cf6)" d="M56.965 8.322c-4.27-2.204-9.288-3.585-14.606-3.805l-0.071-0.002c-4.413-2.833-9.8-4.515-15.579-4.515-4.507 0-8.774 1.023-12.583 2.85l0.175-0.076-2.864 1.342-11.437 2.292v6.318l0.274 0.42c1.563 2.423 3.904 4.227 6.665 5.074l0.086 0.023c0.786 2.406 3.010 4.114 5.633 4.114 2.436 0 4.528-1.473 5.434-3.577l0.015-0.038h21.644c0.92 2.143 3.012 3.617 5.449 3.617s4.529-1.474 5.434-3.578l0.015-0.038h7.206v-9.939zM15.18 16.444c0 1.393-1.13 2.523-2.523 2.523s-2.523-1.13-2.523-2.523c0-1.393 1.13-2.523 2.523-2.523v0c1.393 0 2.523 1.13 2.523 2.523v0zM47.723 16.444c0 1.393-1.13 2.523-2.523 2.523s-2.523-1.13-2.523-2.523c0-1.393 1.13-2.523 2.523-2.523v0c1.393 0.001 2.522 1.13 2.522 2.523 0 0 0 0 0 0v0zM54.465 15.351h-3.452c-0.531-2.764-2.93-4.824-5.811-4.824s-5.279 2.060-5.805 4.787l-0.006 0.037h-20.924c-0.533-2.763-2.932-4.821-5.811-4.821-2.623 0-4.846 1.707-5.62 4.071l-0.012 0.042c-1.484-0.657-2.711-1.662-3.615-2.915l-0.018-0.026v-2.515l9.117-1.823 3.236-1.522c3.009-1.448 6.53-2.338 10.247-2.442l0.036-0.001v3.515h-5.537v3.39h14.464v-3.39h-5.537v-3.382c4.297 0.47 8.178 1.929 11.515 4.143l-0.095-0.059 0.424 0.278h0.505c4.63 0.154 8.971 1.229 12.899 3.045l-0.206-0.086z"></path>
<path fill="#858e9f" style="fill: var(--color5, #858e9f)" d="M54.463 28.61h-7.569v-3.126h-3.391v3.126h-14.086v-4.331h-3.391v4.331h-11.676v-3.126h-3.39v3.126h-7.569v-6.742h-3.391v10.132h57.853v-7.263h-3.39z"></path>
</symbol>
<symbol id="icon-car-two" viewBox="0 0 82 32">
<path fill="#109cf6" style="fill: var(--color4, #109cf6)" d="M68.838 25.535h9.066v-3.832c-0.003-2.060-0.551-3.991-1.508-5.657l0.029 0.056-0.009-0.019c-0.008-0.018-0.020-0.035-0.028-0.053s-0.023-0.051-0.038-0.077l-0.014-0.024c-0.484-0.911-1.084-1.689-1.792-2.352l-0.005-0.005c-2.075-2.075-4.942-3.358-8.109-3.358-0.006 0-0.013 0-0.019 0h-10.91l-8.937-10.215h-37.322l-0.957 3.83-0.633 2.554-0.997 3.991c-1.621 0.465-2.788 1.931-2.792 3.672v11.491h7.777c0.344 1.604 1.253 2.954 2.504 3.861l0.019 0.013-14.164 0.035 0.008 2.554 30.643-0.081-0.008-2.554-8.99 0.023c1.255-0.919 2.153-2.26 2.487-3.811l0.008-0.042h32.181c0.338 1.58 1.224 2.912 2.444 3.818l0.017 0.012h-17.93v2.554h33.197v-2.554h-7.68c1.237-0.919 2.123-2.251 2.454-3.788l0.008-0.042zM72.681 15.321h-3.186l-2.532-2.532c2.238 0.135 4.233 1.076 5.72 2.534l-0.001-0.001zM37.047 2.554h8.357l6.703 7.661h-15.060zM37.047 12.769h16.182l-1.823 6.384h-14.359zM25.271 2.554h9.217v7.661h-11.126zM34.488 12.769v6.384h-6.914l-3.647-6.384zM11.233 2.554h11.411l-1.915 7.661h-7.58l1.595-6.384h-3.83zM10.275 6.382h1.198l-0.964 3.833h-1.192zM17.897 28.086c-2.115 0-3.83-1.715-3.83-3.83s1.715-3.83 3.83-3.83c2.115 0 3.83 1.715 3.83 3.83v0c-0.001 2.115-1.715 3.83-3.83 3.833h-0zM62.583 28.086c-2.115 0-3.83-1.715-3.83-3.83s1.715-3.83 3.83-3.83c2.115 0 3.83 1.715 3.83 3.83v0c-0.001 2.115-1.715 3.83-3.83 3.833h-0zM66.354 19.133c-0.127-0.094-0.253-0.182-0.38-0.266-0.173-0.109-0.381-0.224-0.595-0.326l-0.039-0.017c-0.135-0.065-0.267-0.134-0.408-0.19-0.204-0.082-0.458-0.163-0.718-0.228l-0.042-0.009c-0.127-0.033-0.247-0.077-0.38-0.103-0.365-0.078-0.784-0.123-1.213-0.123s-0.848 0.045-1.253 0.13l0.039-0.007c-0.127 0.025-0.253 0.068-0.38 0.103-0.305 0.075-0.558 0.157-0.805 0.252l0.045-0.015c-0.141 0.056-0.272 0.127-0.408 0.19-0.253 0.119-0.46 0.234-0.66 0.359l0.027-0.016c-0.127 0.084-0.253 0.173-0.38 0.266-0.201 0.149-0.376 0.295-0.544 0.449l0.005-0.004c-0.115 0.106-0.225 0.211-0.333 0.325-0.153 0.166-0.301 0.345-0.44 0.531l-0.012 0.017c-0.091 0.12-0.184 0.238-0.266 0.363-0.12 0.188-0.243 0.41-0.351 0.64l-0.016 0.038c-0.057 0.119-0.127 0.232-0.175 0.353-0.127 0.298-0.24 0.653-0.322 1.020l-0.008 0.042c0 0.023-0.015 0.044-0.020 0.067 0 0 0 0 0 0h-32.173s0 0 0 0c0-0.023-0.015-0.044-0.020-0.067-0.090-0.409-0.203-0.764-0.346-1.104l0.016 0.042c-0.049-0.127-0.118-0.236-0.175-0.353-0.126-0.268-0.248-0.49-0.383-0.704l0.016 0.027c-0.082-0.127-0.175-0.244-0.266-0.363-0.151-0.204-0.299-0.383-0.456-0.553l0.004 0.005c-0.108-0.114-0.218-0.219-0.333-0.325-0.163-0.151-0.339-0.297-0.523-0.433l-0.017-0.012c-0.127-0.094-0.253-0.182-0.38-0.266-0.173-0.109-0.381-0.224-0.595-0.326l-0.039-0.017c-0.136-0.065-0.267-0.134-0.408-0.19-0.204-0.082-0.458-0.163-0.718-0.228l-0.042-0.009c-0.127-0.033-0.247-0.077-0.38-0.103-0.365-0.078-0.784-0.123-1.213-0.123s-0.848 0.045-1.253 0.13l0.040-0.007c-0.127 0.025-0.253 0.068-0.38 0.103-0.305 0.075-0.558 0.157-0.805 0.252l0.045-0.015c-0.141 0.056-0.272 0.127-0.408 0.19-0.253 0.119-0.46 0.234-0.66 0.359l0.027-0.016c-0.127 0.084-0.253 0.173-0.38 0.266-0.201 0.149-0.376 0.295-0.544 0.449l0.005-0.004c-0.115 0.106-0.225 0.211-0.333 0.325-0.153 0.166-0.301 0.345-0.44 0.531l-0.012 0.017c-0.091 0.12-0.184 0.238-0.266 0.363-0.12 0.188-0.243 0.41-0.351 0.64l-0.016 0.038c-0.057 0.119-0.127 0.232-0.175 0.353-0.127 0.298-0.24 0.653-0.322 1.020l-0.008 0.042c0 0.023-0.015 0.044-0.020 0.067 0 0 0 0 0 0h-5.232v-8.937c0.001-0.705 0.572-1.276 1.276-1.276h13.306l5.108 8.937h27.236l2.555-8.937h7.447l5.107 5.107h6.044c0.548 1.109 0.869 2.414 0.869 3.795 0 0.013-0 0.025-0 0.038v-0.002 1.276h-6.515s0 0 0 0c0-0.023-0.015-0.044-0.020-0.067-0.090-0.409-0.203-0.764-0.346-1.104l0.016 0.042c-0.049-0.127-0.118-0.236-0.175-0.353-0.126-0.268-0.248-0.49-0.383-0.704l0.016 0.027c-0.082-0.127-0.175-0.244-0.266-0.363-0.151-0.204-0.299-0.383-0.456-0.553l0.004 0.005c-0.108-0.114-0.218-0.219-0.333-0.325-0.164-0.15-0.341-0.295-0.527-0.43l-0.018-0.012z"></path>
<path fill="#109cf6" style="fill: var(--color4, #109cf6)" d="M33.199 29.365h5.107v2.554h-5.107v-2.554z"></path>
<path fill="#109cf6" style="fill: var(--color4, #109cf6)" d="M76.609 29.365h5.107v2.554h-5.107v-2.554z"></path>
<path fill="#109cf6" style="fill: var(--color4, #109cf6)" d="M16.614 22.982h2.554v2.554h-2.554v-2.554z"></path>
<path fill="#109cf6" style="fill: var(--color4, #109cf6)" d="M61.3 22.982h2.554v2.554h-2.554v-2.554z"></path>
</symbol>
<symbol id="icon-clock" viewBox="0 0 32 32">
<path fill="#5facf8" style="fill: var(--color6, #5facf8)" d="M15.999 0c-0.001 0-0.003 0-0.004 0-8.836 0-15.999 7.163-15.999 15.999s7.163 15.999 15.999 15.999c8.836 0 15.999-7.163 15.999-15.999v0c-0.011-8.83-7.165-15.985-15.994-15.999h-0.001zM15.999 30.007c-7.729-0.005-13.992-6.271-13.992-14 0-7.732 6.268-14 14-14 7.729 0 13.995 6.263 14 13.991v0c-0.005 7.735-6.273 14.003-14.007 14.008h-0z"></path>
<path fill="#5facf8" style="fill: var(--color6, #5facf8)" d="M16.999 5.999h-1.999v10.415l6.294 6.294 1.415-1.415-5.709-5.707z"></path>
</symbol>
<symbol id="icon-customers" viewBox="0 0 47 32">
<path fill="#858e9f" style="fill: var(--color5, #858e9f)" d="M46.535 28.034v3.958h-46.535v-4.267c0-0.002 0-0.005 0-0.008 0-0.93 0.421-1.762 1.083-2.315l0.005-0.004c2.589-2.109 5.502-4.013 8.605-5.598l0.279-0.129c0.094-0.045 0.157-0.139 0.157-0.248 0-0.001 0-0.002-0-0.003v0-2.945c-0.409-0.682-0.711-1.479-0.858-2.329l-0.006-0.041c-0.333-0.029-0.765-0.476-1.235-2.146-0.641-2.266 0.038-2.602 0.617-2.545-0.099-0.266-0.186-0.585-0.246-0.913l-0.006-0.037c-0.108-0.448-0.169-0.962-0.169-1.491s0.062-1.043 0.178-1.536l-0.009 0.045c0.307-1.205 0.917-2.239 1.744-3.053l0.001-0.001c0.472-0.5 1-0.939 1.576-1.309l0.033-0.020c0.445-0.317 0.957-0.585 1.503-0.779l0.044-0.014c0.421-0.148 0.908-0.245 1.413-0.27l0.012-0c0.188-0.021 0.405-0.033 0.626-0.033 1.095 0 2.119 0.3 2.996 0.822l-0.027-0.015c0.726 0.38 1.317 0.93 1.734 1.6l0.011 0.019s2.887 0.204 1.899 6.073c-0.066 0.365-0.153 0.684-0.265 0.991l0.013-0.041c0.582-0.052 1.258 0.281 0.617 2.545-0.476 1.658-0.902 2.123-1.235 2.146-0.159 0.879-0.465 1.663-0.895 2.364l0.017-0.030v2.983c0 0.001-0 0.002-0 0.003 0 0.109 0.063 0.203 0.155 0.248l0.002 0.001c1.762 0.881 3.201 1.707 4.592 2.601l-0.195-0.117c1.425-0.841 2.498-1.381 2.874-1.568 0.087-0.042 0.145-0.13 0.145-0.231 0-0.001 0-0.001 0-0.002v0-2.716c-0.379-0.63-0.659-1.365-0.797-2.15l-0.006-0.039c-0.304-0.023-0.708-0.476-1.144-1.985-0.56-1.97-0.033-2.375 0.476-2.375-0.27-1.153-0.95-5.157 2.027-6.98-0.347-0.294-0.567-0.729-0.57-1.215v-0c0.821 0.105 1.772 0.166 2.736 0.166 0.813 0 1.615-0.043 2.406-0.126l-0.099 0.008c0.157-0.026 0.337-0.041 0.521-0.041 1.454 0 2.693 0.921 3.165 2.212l0.008 0.023s3.324 0 2.036 5.955c0.522 0 1.088 0.337 0.513 2.375-0.436 1.534-0.836 1.962-1.144 1.985-0.143 0.823-0.424 1.559-0.819 2.218l0.016-0.029v2.668c0 0.001 0 0.001 0 0.002 0 0.101 0.059 0.189 0.144 0.23l0.002 0.001c3.152 1.58 5.866 3.34 8.362 5.358l-0.086-0.068c0.614 0.516 1.002 1.284 1.002 2.143 0 0.007-0 0.015-0 0.022v-0.001z"></path>
</symbol>
<symbol id="icon-dashboard" viewBox="0 0 54 32">
<path fill="#2c77ff" style="fill: var(--color7, #2c77ff)" d="M8.202 26.783c0 2.215-1.796 4.011-4.011 4.011s-4.011-1.796-4.011-4.011c0-2.215 1.796-4.011 4.011-4.011s4.011 1.796 4.011 4.011z"></path>
<path fill="#2c77ff" style="fill: var(--color7, #2c77ff)" d="M37.614 24.11c0 2.215-1.796 4.011-4.011 4.011s-4.011-1.796-4.011-4.011c0-2.215 1.796-4.011 4.011-4.011s4.011 1.796 4.011 4.011z"></path>
<path fill="#2c77ff" style="fill: var(--color7, #2c77ff)" d="M49.035 0c-2.444 0.032-4.412 2.021-4.412 4.469 0 0.015 0 0.030 0 0.045l-0-0.002c0.003 0.898 0.265 1.735 0.715 2.439l-0.011-0.018-10.66 12.987c-0.522-0.25-1.134-0.397-1.779-0.401h-0.001c-1.229 0.004-2.337 0.518-3.124 1.342l-0.002 0.002-9.195-5.493c0.011-0.121 0.018-0.262 0.018-0.405s-0.006-0.284-0.019-0.423l0.001 0.018c-0.073-1.253-0.646-2.359-1.521-3.132l-0.005-0.004c-0.762-0.672-1.769-1.082-2.872-1.082-0.116 0-0.23 0.005-0.344 0.013l0.015-0.001c-2.264 0.245-4.011 2.146-4.011 4.455 0 0.11 0.004 0.219 0.012 0.327l-0.001-0.014c0.055 0.91 0.371 1.737 0.872 2.419l-0.009-0.013-5.94 6.1c-0.639-0.406-1.417-0.648-2.251-0.651h-0.001c-2.492 0-4.512 2.020-4.512 4.512s2.020 4.512 4.512 4.512v0c2.444-0.032 4.412-2.021 4.412-4.469 0-0.015-0-0.030-0-0.045l0 0.002c-0.002-0.863-0.244-1.669-0.662-2.356l0.011 0.020 6.048-6.241c0.549 0.284 1.198 0.452 1.886 0.459h0.289c1.389-0.108 2.584-0.851 3.307-1.936l0.010-0.016 8.896 5.333c-0.13 0.394-0.208 0.848-0.214 1.319l-0 0.003c0.132 2.33 2.054 4.169 4.405 4.169s4.273-1.839 4.405-4.157l0.001-0.012c-0.001-1.054-0.363-2.024-0.967-2.793l0.007 0.010 10.528-12.799c0.611 0.373 1.348 0.597 2.136 0.608l0.003 0c0.003 0 0.007 0 0.011 0 2.513 0 4.549-2.037 4.549-4.549 0-2.509-2.030-4.543-4.538-4.549h-0.001zM4.512 29.866c-1.314 0-2.378-1.065-2.378-2.378s1.065-2.378 2.378-2.378c1.314 0 2.378 1.065 2.378 2.378v0c0 1.314-1.065 2.378-2.378 2.378v0zM16.341 17.226c-0.041 0.003-0.088 0.004-0.136 0.004-0.565 0-1.080-0.212-1.471-0.561l0.002 0.002c-0.45-0.419-0.739-1.005-0.767-1.659l-0-0.005c-0.005-0.057-0.008-0.123-0.008-0.19 0-1.226 0.94-2.232 2.138-2.337l0.009-0.001h0.15c0 0 0.001 0 0.001 0 0.561 0 1.074 0.21 1.462 0.557l-0.002-0.002c0.466 0.413 0.77 1 0.81 1.658l0 0.007c0.005 0.056 0.007 0.121 0.007 0.187 0 1.242-0.966 2.259-2.188 2.341l-0.007 0zM32.896 26.421c-0.032 0.002-0.068 0.002-0.106 0.002-1.314 0-2.378-1.065-2.378-2.378s1.065-2.378 2.378-2.378c1.313 0 2.377 1.063 2.378 2.376v0c0 0.013 0 0.028 0 0.044 0 1.268-1.010 2.3-2.27 2.335l-0.003 0zM49.035 6.89c-0.032 0.002-0.068 0.002-0.106 0.002-1.314 0-2.378-1.065-2.378-2.378s1.065-2.378 2.378-2.378c1.313 0 2.377 1.063 2.378 2.376v0c0 0.016 0.001 0.035 0.001 0.054 0 1.266-1.012 2.295-2.271 2.324l-0.003 0z"></path>
</symbol>
<symbol id="icon-home" viewBox="0 0 34 32">
<path fill="#565e6f" style="fill: var(--color8, #565e6f)" d="M33.102 14.216l-15.107-13.765c-0.305-0.281-0.714-0.454-1.163-0.454s-0.858 0.172-1.164 0.455l0.001-0.001-15.107 13.765c-0.347 0.317-0.564 0.771-0.564 1.276 0 0.953 0.773 1.726 1.726 1.726 0 0 0 0 0.001 0h2.417v13.79c0 0.547 0.443 0.99 0.99 0.99v0h8.28c0.547 0 0.99-0.443 0.99-0.99v0-8.371h4.866v8.373c0 0.547 0.443 0.99 0.99 0.99h8.279c0.547 0 0.99-0.443 0.99-0.99v0-13.792h2.414c0 0 0 0 0.001 0 0.953 0 1.726-0.773 1.726-1.726 0-0.505-0.217-0.959-0.563-1.275l-0.001-0.001z"></path>
<path fill="#565e6f" style="fill: var(--color8, #565e6f)" d="M29.268 1.975h-6.649l7.642 6.946v-5.956c0 0 0 0 0 0 0-0.547-0.443-0.99-0.99-0.99-0.001 0-0.003 0-0.004 0h0z"></path>
</symbol>
<symbol id="icon-logout" viewBox="0 0 43 32">
<path fill="#acb9cc" style="fill: var(--color9, #acb9cc)" d="M39.614 0.657l-3.835 3.835c-1.76 1.767-2.848 4.204-2.848 6.895 0 2.668 1.070 5.087 2.804 6.851l-0.001-0.001c1.050 1.017 1.702 2.439 1.702 4.014 0 1.258-0.416 2.419-1.118 3.352l0.010-0.014c-1.001 1.298-2.556 2.127-4.305 2.127-1.515 0-2.884-0.621-3.868-1.623l-3.426-3.426c1.126-1.691 1.797-3.769 1.797-6.004 0-3.001-1.21-5.72-3.168-7.695l-3.926-3.926c-0.259-0.255-0.614-0.412-1.006-0.412s-0.747 0.157-1.006 0.412l-2.1 2.1-5.434-5.434c-0.375-0.396-0.904-0.642-1.491-0.642-0.492 0-0.944 0.173-1.298 0.463l0.004-0.003c-0.461 0.37-0.753 0.934-0.753 1.565 0 0.569 0.237 1.083 0.618 1.447l0.001 0.001 5.48 5.479-3.425 3.425-5.479-5.434c-0.375-0.396-0.904-0.642-1.491-0.642-0.492 0-0.944 0.173-1.298 0.463l0.004-0.003c-0.461 0.37-0.753 0.934-0.753 1.565 0 0.569 0.237 1.083 0.618 1.447l0.001 0.001 5.479 5.48-2.1 2.1c-0.255 0.259-0.412 0.614-0.412 1.006s0.157 0.747 0.412 1.006l3.926 3.926c1.961 1.973 4.677 3.195 7.678 3.195 2.243 0 4.327-0.682 6.055-1.851l-0.038 0.024 3.288 3.292c1.809 1.842 4.326 2.983 7.109 2.983 2.575 0 4.922-0.977 6.69-2.58l-0.008 0.007c1.94-1.799 3.15-4.362 3.15-7.207 0-2.714-1.101-5.171-2.881-6.949l-0.046-0.046c-0.994-0.984-1.609-2.349-1.609-3.858s0.615-2.874 1.609-3.858l3.794-3.794c0.401-0.395 0.65-0.945 0.65-1.552s-0.249-1.157-0.65-1.552l-0-0c-0.397-0.378-0.936-0.61-1.528-0.61-0.616 0-1.173 0.251-1.575 0.655l-0 0z"></path>
</symbol>
<symbol id="icon-menu_icon" viewBox="0 0 47 32">
<path fill="#fff" style="fill: var(--color1, #fff)" d="M2.324 0c-1.304 0.097-2.326 1.179-2.326 2.5s1.021 2.403 2.317 2.499l0.008 0h33.464c1.304-0.097 2.326-1.179 2.326-2.5s-1.021-2.403-2.317-2.499l-0.008-0.001zM2.324 13.5c-1.304 0.097-2.326 1.179-2.326 2.5s1.021 2.403 2.317 2.499l0.008 0h42.633c1.304-0.097 2.326-1.179 2.326-2.5s-1.021-2.403-2.317-2.499l-0.008-0.001zM2.324 27.001c-1.304 0.097-2.326 1.179-2.326 2.5s1.021 2.403 2.317 2.499l0.008 0h25.213c1.304-0.097 2.326-1.179 2.326-2.5s-1.021-2.403-2.317-2.499l-0.008-0h-25.213z"></path>
</symbol>
<symbol id="icon-more" viewBox="0 0 8 32">
<path fill="#fff" style="fill: var(--color1, #fff)" opacity="0.51" d="M6.828 1.176c0.723 0.724 1.17 1.723 1.17 2.826 0 2.208-1.79 3.999-3.999 3.999s-3.999-1.79-3.999-3.999c0-1.104 0.447-2.103 1.17-2.826l-0 0c0.724-0.724 1.724-1.172 2.828-1.172s2.105 0.448 2.828 1.172l0 0z"></path>
<path fill="#fff" style="fill: var(--color1, #fff)" opacity="0.51" d="M6.828 13.172c0.723 0.723 1.17 1.723 1.17 2.826 0 2.208-1.79 3.999-3.999 3.999s-3.999-1.79-3.999-3.999c0-1.104 0.447-2.103 1.17-2.826l-0 0c0.724-0.724 1.724-1.172 2.828-1.172s2.105 0.448 2.828 1.172l0 0z"></path>
<path fill="#fff" style="fill: var(--color1, #fff)" opacity="0.51" d="M6.828 25.172c0.723 0.724 1.17 1.723 1.17 2.826 0 2.208-1.79 3.999-3.999 3.999s-3.999-1.79-3.999-3.999c0-1.104 0.447-2.103 1.17-2.826l-0 0c0.724-0.724 1.724-1.172 2.828-1.172s2.105 0.448 2.828 1.172l0 0z"></path>
</symbol>
<symbol id="icon-pin-white" viewBox="0 0 23 32">
<path fill="#fff" style="fill: var(--color1, #fff)" opacity="0.5" d="M11.589 0c-6.397 0.008-11.581 5.192-11.589 11.588v0.001c0 7.93 10.371 19.573 10.813 20.065 0.192 0.212 0.468 0.344 0.774 0.344s0.583-0.132 0.774-0.343l0.001-0.001c0.441-0.487 10.817-12.134 10.817-20.065-0.008-6.398-5.192-11.582-11.589-11.589h-0.001zM11.589 17.422c-3.22 0-5.831-2.61-5.831-5.831s2.61-5.831 5.831-5.831c3.22 0 5.831 2.61 5.831 5.831v0c-0.004 3.219-2.612 5.827-5.83 5.831h-0z"></path>
</symbol>
<symbol id="icon-plus" viewBox="0 0 32 32">
<path fill="#109cf6" style="fill: var(--color4, #109cf6)" d="M16.001 0c1.701 0 3.080 1.379 3.080 3.080v25.841c0 1.701-1.379 3.080-3.080 3.080s-3.080-1.379-3.080-3.080v-25.841c0-1.701 1.379-3.080 3.080-3.080z"></path>
<path fill="#109cf6" style="fill: var(--color4, #109cf6)" d="M0 16.001c0-1.701 1.379-3.080 3.080-3.080h25.841c1.701 0 3.080 1.379 3.080 3.080s-1.379 3.080-3.080 3.080h-25.841c-1.701 0-3.080-1.379-3.080-3.080z"></path>
</symbol>
<symbol id="icon-question" viewBox="0 0 32 32">
<path fill="#fff" style="fill: var(--color1, #fff)" opacity="0.52" d="M32 21.656c-0.007-4.014-2.293-7.492-5.632-9.212l-0.058-0.027c-0.12 7.624-6.268 13.773-13.881 13.892l-0.011 0c1.742 3.402 5.224 5.69 9.24 5.69 1.941 0 3.757-0.535 5.31-1.464l-0.047 0.026 5.039 1.397-1.393-5.035c0.906-1.503 1.443-3.318 1.443-5.259 0-0.002 0-0.003 0-0.005v0z"></path>
<path fill="#fff" style="fill: var(--color1, #fff)" opacity="0.52" d="M24.437 12.219c-0.001-6.748-5.471-12.218-12.219-12.218s-12.219 5.471-12.219 12.219c0 2.29 0.63 4.433 1.726 6.265l-0.031-0.056-1.649 5.962 5.962-1.649c1.776 1.065 3.919 1.695 6.209 1.695 6.749 0 12.219-5.47 12.221-12.218v-0zM10.344 9.375h-1.875c0-0 0-0.001 0-0.001 0-2.071 1.679-3.751 3.751-3.751s3.751 1.679 3.751 3.751c0 1.095-0.469 2.080-1.218 2.766l-0.003 0.003-1.594 1.457v1.462h-1.875v-2.287l2.202-2.020c0.376-0.341 0.611-0.831 0.611-1.376 0-0.003 0-0.005-0-0.008v0c0-1.036-0.84-1.875-1.875-1.875s-1.875 0.84-1.875 1.875v0zM11.281 16.938h1.875v1.875h-1.875z"></path>
</symbol>
<symbol id="icon-quotes" viewBox="0 0 33 32">
<path fill="#858e9f" style="fill: var(--color5, #858e9f)" d="M0 6.194v19.605c-0 0.004-0 0.009-0 0.014 0 0.811 0.537 1.496 1.275 1.719l0.013 0.003 14.336 4.315c0.305 0.095 0.656 0.15 1.019 0.15s0.714-0.055 1.044-0.157l-0.025 0.007 14.336-4.322c0.751-0.226 1.288-0.912 1.288-1.722 0-0.006-0-0.013-0-0.019v0.001-19.593c0-0.005 0-0.012 0-0.018 0-0.811-0.537-1.496-1.275-1.719l-0.013-0.003-14.336-4.304c-0.305-0.095-0.656-0.15-1.019-0.15s-0.714 0.055-1.044 0.157l0.025-0.007-6.241 1.879v8.288l-3.295 0.624v-7.92l-4.8 1.441c-0.751 0.23-1.288 0.917-1.288 1.73 0 0.001 0 0.002 0 0.003v-0zM18.443 4.162l11.222 3.375v16.918l-11.216 3.372z"></path>
</symbol>
<symbol id="icon-rank" viewBox="0 0 32 32">
<path fill="#109cf6" style="fill: var(--color4, #109cf6)" d="M31.999 16c0 8.836-7.163 16-16 16s-16-7.163-16-16c0-8.836 7.163-16 16-16s16 7.163 16 16z"></path>
<path fill="#fff" style="fill: var(--color1, #fff)" d="M16 21.267l-4.944 2.731 0.944-5.789-4-4.098 5.528-0.844 2.472-5.267 2.472 5.267 5.526 0.844-4 4.102 0.947 5.785z"></path>
</symbol>
<symbol id="icon-rentals" viewBox="0 0 37 32">
<path fill="#fff" style="fill: var(--color1, #fff)" d="M11.429 3.429h14.286c3.471 0 6.286 2.814 6.286 6.286v9.143c0 3.471-2.814 6.286-6.286 6.286h-14.286c-3.471 0-6.286-2.814-6.286-6.286v-9.143c0-3.471 2.814-6.286 6.286-6.286z"></path>
<path fill="#109cf6" style="fill: var(--color4, #109cf6)" d="M17.649 8.229h9.433c0.488 0 0.884 0.396 0.884 0.884v0.001c0 0.488-0.396 0.884-0.884 0.884h-9.433c-0.488 0-0.884-0.396-0.884-0.884v-0.001c0-0.488 0.396-0.884 0.884-0.884z"></path>
<path fill="#109cf6" style="fill: var(--color4, #109cf6)" opacity="0.3" d="M10.069 12.524h17.012c0.488 0 0.884 0.396 0.884 0.884v0.001c0 0.488-0.396 0.884-0.884 0.884h-17.012c-0.488 0-0.884-0.396-0.884-0.884v-0.001c0-0.488 0.396-0.884 0.884-0.884z"></path>
<path fill="#109cf6" style="fill: var(--color4, #109cf6)" opacity="0.3" d="M10.069 16.819h17.012c0.488 0 0.884 0.396 0.884 0.884v0.001c0 0.488-0.396 0.884-0.884 0.884h-17.012c-0.488 0-0.884-0.396-0.884-0.884v-0.001c0-0.488 0.396-0.884 0.884-0.884z"></path>
<path fill="#109cf6" style="fill: var(--color4, #109cf6)" d="M10.245 7.945l1.824 1.053c0.302 0.174 0.405 0.561 0.231 0.863l-0 0.001c-0.174 0.302-0.561 0.405-0.863 0.231l-1.824-1.053c-0.302-0.174-0.405-0.561-0.231-0.863l0-0.001c0.174-0.302 0.561-0.405 0.863-0.231z"></path>
<path fill="#109cf6" style="fill: var(--color4, #109cf6)" d="M11.301 9.136l3.141-3.742c0.224-0.267 0.623-0.302 0.89-0.078l0 0c0.267 0.224 0.302 0.623 0.078 0.89l-3.141 3.742c-0.224 0.267-0.623 0.302-0.89 0.078l-0-0c-0.267-0.224-0.302-0.623-0.078-0.89z"></path>
</symbol>
<symbol id="icon-reports" viewBox="0 0 32 32">
<path fill="none" stroke="#acb9cc" style="stroke: var(--color9, #acb9cc)" stroke-linejoin="miter" stroke-linecap="butt" stroke-miterlimit="4" stroke-width="2" d="M5 0h22c2.761 0 5 2.239 5 5v22c0 2.761-2.239 5-5 5h-22c-2.761 0-5-2.239-5-5v-22c0-2.761 2.239-5 5-5z"></path>
<path fill="none" stroke="#acb9cc" style="stroke: var(--color9, #acb9cc)" stroke-linejoin="miter" stroke-linecap="butt" stroke-miterlimit="4" stroke-width="2" d="M5 1h22c2.209 0 4 1.791 4 4v22c0 2.209-1.791 4-4 4h-22c-2.209 0-4-1.791-4-4v-22c0-2.209 1.791-4 4-4z"></path>
<path fill="#858e9f" style="fill: var(--color5, #858e9f)" d="M6 11.281h4v13.336h-4v-13.336z"></path>
<path fill="#858e9f" style="fill: var(--color5, #858e9f)" d="M14 11.281h4v10.437h-4v-10.437z"></path>
<path fill="#858e9f" style="fill: var(--color5, #858e9f)" d="M6 7.281h4v2h-4v-2z"></path>
<path fill="#858e9f" style="fill: var(--color5, #858e9f)" d="M14 7.281h4v2h-4v-2z"></path>
<path fill="#858e9f" style="fill: var(--color5, #858e9f)" d="M22 7.281h4v2h-4v-2z"></path>
<path fill="#858e9f" style="fill: var(--color5, #858e9f)" d="M22 11.281h4v12.757h-4v-12.757z"></path>
</symbol>
<symbol id="icon-reservations" viewBox="0 0 32 32">
<path fill="#c8d2e2" style="fill: var(--color3, #c8d2e2)" d="M24 0h-22.401c-0.882 0.002-1.597 0.717-1.599 1.599v22.402c-0.002 0.027-0.003 0.058-0.003 0.090 0 0.835 0.677 1.512 1.512 1.512 0.032 0 0.063-0.001 0.094-0.003l-0.004 0h1.601v-20.802c-0.002-0.027-0.003-0.058-0.003-0.090 0-0.835 0.677-1.512 1.512-1.512 0.032 0 0.063 0.001 0.094 0.003l-0.004-0h20.8v-1.601c0.002-0.027 0.003-0.058 0.003-0.090 0-0.835-0.677-1.512-1.512-1.512-0.032 0-0.063 0.001-0.094 0.003l0.004-0z"></path>
<path fill="#c8d2e2" style="fill: var(--color3, #c8d2e2)" d="M30.401 6.4h-22.402c-0.027-0.002-0.058-0.003-0.090-0.003-0.835 0-1.512 0.677-1.512 1.512 0 0.032 0.001 0.063 0.003 0.094l-0-0.004v22.402c-0.002 0.027-0.003 0.058-0.003 0.090 0 0.835 0.677 1.512 1.512 1.512 0.032 0 0.063-0.001 0.094-0.003l-0.004 0h22.402c0.027 0.002 0.058 0.003 0.090 0.003 0.835 0 1.512-0.677 1.512-1.512 0-0.032-0.001-0.063-0.003-0.094l0 0.004v-22.402c0.002-0.027 0.003-0.058 0.003-0.090 0-0.835-0.677-1.512-1.512-1.512-0.032 0-0.063 0.001-0.094 0.003l0.004-0zM20.8 27.2h-9.6c-0.884 0-1.6-0.716-1.6-1.6s0.716-1.6 1.6-1.6v0h9.6c0.884 0 1.6 0.716 1.6 1.6s-0.716 1.6-1.6 1.6v0zM27.2 20.8h-16.001c-0.884 0-1.6-0.716-1.6-1.6s0.716-1.6 1.6-1.6v0h16.001c0.884 0 1.6 0.716 1.6 1.6s-0.716 1.6-1.6 1.6v0zM27.2 14.4h-16.001c-0.884 0-1.6-0.716-1.6-1.6s0.716-1.6 1.6-1.6v0h16.001c0.884 0 1.6 0.716 1.6 1.6s-0.716 1.6-1.6 1.6v0z"></path>
</symbol>
<symbol id="icon-search-white" viewBox="0 0 33 32">
<path fill="#fff" style="fill: var(--color1, #fff)" opacity="0.53" d="M25.363 9.458c0.22-0.205 0.362-0.494 0.373-0.818s-0.11-0.622-0.315-0.842v0c-1.4-1.496-3.371-2.46-5.581-2.538-0.296-0.010-0.589-0.005-0.878 0.017l0.036-0.002c-0.598 0.040-1.076 0.523-1.098 1.13v0c-0.001 0.040-0.003 0.078 0.002 0.114 0.040 0.599 0.524 1.077 1.131 1.099 0.041 0.001 0.082 0.001 0.122-0.002l-0.005 0c0.182-0.014 0.393-0.019 0.606-0.011 1.563 0.055 2.957 0.735 3.949 1.792l-0-0c0.205 0.221 0.494 0.363 0.82 0.375 0.323 0.011 0.621-0.109 0.84-0.313l-0 0z"></path>
<path fill="#fff" style="fill: var(--color1, #fff)" opacity="0.53" d="M32.433 14.362c0.259-7.413-5.54-13.633-12.954-13.893s-13.634 5.54-13.894 12.954 5.54 13.634 12.954 13.894v0c7.411 0.251 13.626-5.544 13.894-12.954l0-0.001zM7.926 13.503c0.217-6.115 5.349-10.897 11.464-10.683 6.117 0.214 10.903 5.347 10.688 11.465-0.214 6.115-5.344 10.9-11.459 10.689h-0c-6.119-0.218-10.905-5.351-10.694-11.47v-0z"></path>
<path fill="#fff" style="fill: var(--color1, #fff)" opacity="0.53" d="M2.026 31.336l8.831-8.233c0.236-0.207 0.388-0.506 0.4-0.843 0.023-0.649-0.485-1.193-1.133-1.215-0.337-0.012-0.646 0.12-0.868 0.34l-0.001 0.001-8.831 8.233c-0.205 0.203-0.336 0.482-0.347 0.793-0.023 0.649 0.485 1.193 1.133 1.215 0.311 0.011 0.599-0.1 0.816-0.291l-0.001 0.001z"></path>
</symbol>
<symbol id="icon-settings" viewBox="0 0 32 32">
<path fill="#858e9f" style="fill: var(--color5, #858e9f); stroke: var(--color9, #acb9cc)" stroke="#acb9cc" stroke-linejoin="miter" stroke-linecap="butt" stroke-miterlimit="4" stroke-width="1.0323" d="M13.247 0.516c-0.316 0.018-0.577 0.232-0.665 0.521l-0.001 0.005-0.86 3.71c-0.219 0.083-0.431 0.173-0.645 0.268l-3.23-2.020c-0.103-0.062-0.228-0.099-0.361-0.099-0.19 0-0.362 0.075-0.489 0.196l-3.888 3.891c-0.123 0.128-0.199 0.301-0.199 0.493 0 0.136 0.038 0.262 0.104 0.37l-0.002-0.003 2.011 3.226c-0.094 0.206-0.187 0.428-0.268 0.645l-3.699 0.85c-0.309 0.079-0.535 0.354-0.538 0.682v5.505c0.011 0.322 0.234 0.589 0.533 0.666l0.005 0.001 3.694 0.847c0.084 0.221 0.183 0.441 0.28 0.655l-2.021 3.226c-0.062 0.103-0.099 0.228-0.099 0.361 0 0.19 0.075 0.362 0.196 0.489l3.892 3.892c0.127 0.121 0.299 0.196 0.489 0.196 0.133 0 0.257-0.037 0.364-0.1l-0.003 0.002 3.226-2.021c0.214 0.096 0.426 0.186 0.645 0.268l0.86 3.71c0.078 0.305 0.345 0.528 0.666 0.538l0.001 0h5.505c0.322-0.011 0.589-0.234 0.666-0.533l0.001-0.005 0.86-3.71c0.219-0.083 0.431-0.173 0.645-0.268l3.226 2.021c0.103 0.062 0.228 0.099 0.361 0.099 0.19 0 0.362-0.075 0.489-0.196l3.892-3.892c0.121-0.127 0.196-0.299 0.196-0.489 0-0.133-0.037-0.257-0.1-0.364l0.002 0.003-2.021-3.226c0.097-0.216 0.196-0.435 0.28-0.655l3.699-0.85c0.305-0.078 0.528-0.345 0.538-0.666l0-0.001v-5.503c-0.005-0.326-0.23-0.599-0.533-0.676l-0.005-0.001-3.699-0.85c-0.083-0.217-0.174-0.434-0.268-0.645l2.011-3.226c0.064-0.105 0.102-0.231 0.102-0.367 0-0.192-0.076-0.366-0.199-0.493l0 0-3.893-3.893c-0.127-0.121-0.299-0.196-0.489-0.196-0.133 0-0.257 0.037-0.364 0.1l0.003-0.002-3.226 2.021c-0.213-0.095-0.426-0.186-0.645-0.268l-0.86-3.71c-0.082-0.3-0.348-0.518-0.666-0.526l-0.001-0zM13.785 1.892h4.43l0.806 3.516c0.057 0.23 0.221 0.412 0.436 0.493l0.005 0.002c0.491 0.169 0.896 0.34 1.287 0.534l-0.062-0.028c0.089 0.044 0.193 0.069 0.304 0.069 0.134 0 0.259-0.038 0.366-0.103l-0.003 0.002 3.065-1.914 3.118 3.118-1.914 3.065c-0.064 0.104-0.101 0.229-0.101 0.363 0 0.11 0.026 0.215 0.071 0.308l-0.002-0.004c0.163 0.327 0.33 0.729 0.472 1.143l0.022 0.074c0.081 0.226 0.269 0.397 0.501 0.451l0.005 0.001 3.516 0.806v4.419l-3.516 0.806c-0.237 0.056-0.425 0.226-0.504 0.447l-0.002 0.005c-0.164 0.487-0.331 0.889-0.522 1.277l0.027-0.062c-0.045 0.090-0.072 0.197-0.072 0.31 0 0.136 0.039 0.263 0.106 0.371l-0.002-0.003 1.914 3.053-3.118 3.118-3.065-1.914c-0.104-0.064-0.229-0.101-0.363-0.101-0.11 0-0.215 0.026-0.308 0.071l0.004-0.002c-0.329 0.166-0.734 0.337-1.15 0.483l-0.075 0.023c-0.219 0.082-0.384 0.264-0.44 0.49l-0.001 0.005-0.818 3.527h-4.408l-0.818-3.527c-0.057-0.23-0.221-0.412-0.436-0.493l-0.005-0.002c-0.492-0.169-0.896-0.34-1.288-0.534l0.062 0.028c-0.089-0.044-0.193-0.069-0.304-0.069-0.134 0-0.259 0.038-0.366 0.103l0.003-0.002-3.065 1.914-3.118-3.118 1.914-3.053c0.065-0.105 0.104-0.232 0.104-0.368 0-0.113-0.027-0.219-0.074-0.314l0.002 0.004c-0.163-0.326-0.33-0.728-0.472-1.141l-0.022-0.074c-0.081-0.226-0.269-0.396-0.501-0.45l-0.005-0.001-3.516-0.807v-4.419l3.516-0.806c0.237-0.055 0.425-0.225 0.504-0.446l0.002-0.005c0.164-0.487 0.331-0.889 0.522-1.277l-0.027 0.062c0.044-0.089 0.069-0.193 0.069-0.304 0-0.134-0.038-0.259-0.103-0.366l0.002 0.003-1.914-3.065 3.118-3.118 3.065 1.914c0.103 0.064 0.229 0.101 0.363 0.101 0.111 0 0.215-0.026 0.308-0.071l-0.004 0.002c0.329-0.166 0.734-0.337 1.15-0.483l0.075-0.023c0.219-0.082 0.384-0.264 0.44-0.49l0.001-0.005 0.806-3.516zM16 8.43c-4.181 0-7.57 3.389-7.57 7.57s3.389 7.57 7.57 7.57c4.181 0 7.57-3.389 7.57-7.57v0c-0.006-4.178-3.391-7.564-7.569-7.57h-0.001zM16 9.806c3.421 0 6.194 2.773 6.194 6.194s-2.773 6.194-6.194 6.194c-3.421 0-6.194-2.773-6.194-6.194v0c0-0.003 0-0.007 0-0.010 0-3.415 2.768-6.183 6.183-6.183 0.004 0 0.007 0 0.011 0h-0.001z"></path>
</symbol>
<symbol id="icon-support" viewBox="0 0 32 32">
<path fill="#fd5e7c" style="fill: var(--color10, #fd5e7c)" d="M5.628 24.748c-0.002 0-0.004 0-0.006 0-0.46 0-0.893 0.119-1.268 0.328l0.013-0.007c-1.939-2.474-3.11-5.631-3.11-9.062 0-8.15 6.607-14.757 14.757-14.757 1.034 0 2.044 0.106 3.018 0.309l-0.096-0.017c0.037 0.008 0.080 0.012 0.124 0.012 0.345 0 0.625-0.28 0.625-0.625 0-0.301-0.213-0.553-0.497-0.612l-0.004-0.001c-0.955-0.201-2.052-0.316-3.176-0.316-0.003 0-0.006 0-0.010 0h0.001c-0 0-0.001 0-0.001 0-8.837 0-16 7.163-16 16 0 3.76 1.297 7.217 3.468 9.949l-0.025-0.033c-0.276 0.409-0.441 0.914-0.441 1.457 0 1.45 1.176 2.626 2.626 2.626s2.626-1.176 2.626-2.626c0-1.45-1.175-2.625-2.625-2.626h-0zM6.6 28.345c-0.249 0.249-0.592 0.403-0.972 0.403-0.759 0-1.375-0.615-1.375-1.375s0.615-1.375 1.375-1.375c0.759 0 1.375 0.615 1.375 1.375v0c0 0.001 0 0.003 0 0.004 0 0.378-0.154 0.721-0.403 0.968l-0 0z"></path>
<path fill="#fd5e7c" style="fill: var(--color10, #fd5e7c)" d="M28.557 6.083c0.274-0.407 0.437-0.909 0.437-1.449 0-1.447-1.173-2.619-2.619-2.619s-2.619 1.173-2.619 2.619c0 1.447 1.173 2.619 2.619 2.619 0.461 0 0.895-0.119 1.271-0.329l-0.013 0.007c1.94 2.474 3.111 5.632 3.111 9.063 0 8.15-6.607 14.756-14.756 14.756-1.025 0-2.026-0.105-2.993-0.304l0.095 0.016c-0.033-0.006-0.071-0.010-0.111-0.010-0.345 0-0.625 0.28-0.625 0.625 0 0.298 0.208 0.547 0.486 0.61l0.004 0.001c0.948 0.198 2.037 0.311 3.153 0.311 0.001 0 0.001 0 0.002 0h-0c0 0 0.001 0 0.001 0 8.837 0 16-7.163 16-16 0-3.761-1.298-7.219-3.47-9.95l0.025 0.033zM25.4 5.6c-0.249-0.249-0.403-0.593-0.403-0.973 0-0.76 0.616-1.376 1.376-1.376s1.376 0.616 1.376 1.376c0 0.76-0.616 1.376-1.376 1.376-0 0-0 0-0 0h0c-0.001 0-0.002 0-0.004 0-0.378 0-0.721-0.154-0.968-0.403l-0-0z"></path>
<path fill="#565e6f" style="fill: var(--color8, #565e6f)" d="M13.42 26.751c0 0.345 0.28 0.625 0.625 0.625v0h3.908c0.345 0 0.625-0.28 0.625-0.625v0-1.212c0.892-0.243 1.671-0.576 2.392-0.997l-0.046 0.025 0.855 0.855c0.113 0.113 0.27 0.183 0.442 0.183s0.329-0.070 0.442-0.183l2.763-2.764c0.113-0.113 0.183-0.269 0.183-0.442s-0.070-0.329-0.183-0.442v0l-0.854-0.854c0.397-0.674 0.729-1.454 0.956-2.277l0.016-0.069h1.207c0.345 0 0.625-0.28 0.625-0.625v0-3.908c0-0.345-0.28-0.625-0.625-0.625v0h-1.207c-0.243-0.892-0.576-1.671-0.997-2.392l0.025 0.046 0.849-0.849c0.113-0.113 0.183-0.27 0.183-0.442s-0.070-0.329-0.183-0.442l-2.764-2.763c-0.113-0.113-0.269-0.183-0.442-0.183s-0.329 0.070-0.442 0.183v0l-0.849 0.849c-0.674-0.397-1.454-0.729-2.277-0.956l-0.069-0.016v-1.2c0-0.345-0.28-0.625-0.625-0.625v0h-3.908c-0.345 0-0.625 0.28-0.625 0.625v0 1.2c-0.892 0.243-1.671 0.575-2.392 0.997l0.046-0.025-0.849-0.849c-0.113-0.113-0.269-0.183-0.442-0.183s-0.329 0.070-0.442 0.183v0l-2.764 2.765c-0.113 0.113-0.183 0.27-0.183 0.442s0.070 0.329 0.183 0.442l0.849 0.849c-0.397 0.674-0.729 1.454-0.956 2.277l-0.016 0.069h-1.204c-0.345 0-0.625 0.28-0.625 0.625v0 3.908c0 0.345 0.28 0.625 0.625 0.625v0h1.207c0.243 0.892 0.575 1.671 0.997 2.392l-0.025-0.046-0.854 0.854c-0.113 0.113-0.183 0.269-0.183 0.442s0.070 0.329 0.183 0.442l2.763 2.764c0.113 0.113 0.269 0.183 0.442 0.183 0 0 0 0 0 0h-0c0 0 0 0 0 0 0.173 0 0.329-0.070 0.442-0.183l0.855-0.855c0.674 0.396 1.454 0.729 2.277 0.956l0.069 0.016zM11.32 23.253c-0.096-0.063-0.213-0.1-0.339-0.1-0.173 0-0.329 0.070-0.442 0.183l-0.761 0.761-1.879-1.88 0.76-0.761c0.113-0.113 0.183-0.269 0.183-0.442 0-0.126-0.037-0.243-0.101-0.341l0.001 0.002c-0.538-0.818-0.948-1.775-1.174-2.8l-0.011-0.057c-0.063-0.284-0.312-0.494-0.611-0.494h-1.072v-2.658h1.072c0.299-0 0.548-0.21 0.61-0.49l0.001-0.004c0.237-1.082 0.647-2.038 1.204-2.889l-0.020 0.033c0.063-0.096 0.1-0.213 0.1-0.339 0-0.172-0.070-0.329-0.183-0.442v0l-0.754-0.754 1.88-1.879 0.754 0.754c0.113 0.113 0.269 0.183 0.442 0.183 0.126 0 0.244-0.037 0.342-0.102l-0.002 0.001c0.818-0.538 1.775-0.948 2.8-1.174l0.057-0.011c0.284-0.063 0.494-0.312 0.494-0.611v0-1.068h2.658v1.067c0 0.299 0.21 0.548 0.49 0.61l0.004 0.001c1.082 0.237 2.038 0.647 2.889 1.204l-0.033-0.020c0.096 0.063 0.213 0.1 0.339 0.1 0.172 0 0.329-0.070 0.442-0.183v0l0.754-0.754 1.88 1.879-0.754 0.754c-0.113 0.113-0.183 0.269-0.183 0.442 0 0.126 0.037 0.244 0.102 0.342l-0.001-0.002c0.536 0.818 0.946 1.775 1.171 2.8l0.010 0.057c0.063 0.284 0.312 0.494 0.611 0.494h1.077v2.658h-1.074c-0.299 0-0.548 0.21-0.61 0.49l-0.001 0.004c-0.237 1.082-0.647 2.038-1.204 2.889l0.020-0.033c-0.063 0.096-0.1 0.213-0.1 0.34 0 0.173 0.070 0.329 0.183 0.442l0.76 0.76-1.879 1.88-0.761-0.761c-0.113-0.113-0.269-0.183-0.442-0.183-0.126 0-0.244 0.037-0.342 0.102l0.002-0.001c-0.818 0.537-1.775 0.947-2.8 1.174l-0.057 0.011c-0.284 0.063-0.494 0.312-0.494 0.611v0 1.074h-2.657v-1.075c-0-0.299-0.21-0.548-0.49-0.61l-0.004-0.001c-1.082-0.237-2.038-0.647-2.889-1.204l0.033 0.020z"></path>
<path fill="#565e6f" style="fill: var(--color8, #565e6f)" d="M21.165 16.001c0-2.852-2.312-5.164-5.164-5.164s-5.164 2.312-5.164 5.164c0 2.852 2.312 5.164 5.164 5.164v0c2.85-0.004 5.16-2.313 5.164-5.164v-0zM12.086 16.001c0-0 0-0.001 0-0.001 0-2.162 1.753-3.915 3.915-3.915s3.915 1.753 3.915 3.915c0 2.162-1.753 3.915-3.915 3.915v0c-2.16-0.004-3.909-1.754-3.912-3.913v-0z"></path>
<path fill="#fd5e7c" style="fill: var(--color10, #fd5e7c)" d="M21.755 2.364c0 0 0 0 0.001 0 0.345 0 0.625-0.28 0.625-0.625s-0.28-0.625-0.625-0.625c-0.345 0-0.625 0.28-0.625 0.625 0 0.173 0.070 0.329 0.183 0.442v0c0.113 0.112 0.269 0.182 0.441 0.183h0z"></path>
<path fill="#fd5e7c" style="fill: var(--color10, #fd5e7c)" d="M10.272 29.648c-0.345 0-0.625 0.28-0.625 0.625s0.28 0.625 0.625 0.625 0.625-0.28 0.625-0.625c0-0.173-0.070-0.329-0.183-0.442v0c-0.113-0.113-0.27-0.182-0.442-0.183h-0z"></path>
</symbol>
<symbol id="icon-user" viewBox="0 0 27 32">
<path fill="#fff" style="fill: var(--color1, #fff)" opacity="0.52" d="M13.147 15.414c0.030 0 0.066 0.001 0.103 0.001 2.096 0 3.99-0.865 5.345-2.257l0.002-0.002c1.394-1.356 2.259-3.251 2.259-5.347 0-0.036-0-0.072-0.001-0.108l0 0.005c0-0.031 0.001-0.068 0.001-0.104 0-2.095-0.863-3.988-2.254-5.342l-0.002-0.002c-1.394-1.395-3.321-2.258-5.449-2.258s-4.055 0.863-5.449 2.258l-0 0c-1.394 1.356-2.259 3.251-2.259 5.347 0 0.036 0 0.072 0.001 0.108l-0-0.005c-0 0.030-0.001 0.066-0.001 0.103 0 2.096 0.865 3.99 2.257 5.345l0.002 0.002c1.357 1.393 3.251 2.258 5.347 2.258 0.035 0 0.070-0 0.105-0.001l-0.005 0z"></path>
<path fill="#fff" style="fill: var(--color1, #fff)" opacity="0.52" d="M26.633 24.606c-0.058-0.768-0.15-1.46-0.278-2.14l0.019 0.118c-0.141-0.797-0.314-1.481-0.529-2.146l0.032 0.113c-0.237-0.728-0.521-1.355-0.862-1.945l0.026 0.048c-0.355-0.629-0.773-1.169-1.259-1.641l-0.002-0.002c-0.507-0.478-1.109-0.863-1.772-1.125l-0.038-0.013c-0.668-0.265-1.441-0.419-2.251-0.419-0.021 0-0.042 0-0.063 0l0.003-0c-0.482 0.053-0.91 0.245-1.255 0.534l0.004-0.003c-0.375 0.245-0.815 0.528-1.305 0.842-0.485 0.295-1.045 0.548-1.635 0.73l-0.053 0.014c-0.616 0.212-1.327 0.334-2.065 0.334s-1.449-0.122-2.112-0.347l0.046 0.014c-0.643-0.196-1.202-0.449-1.72-0.763l0.033 0.019c-0.486-0.311-0.925-0.594-1.306-0.842-0.341-0.286-0.77-0.478-1.241-0.53l-0.011-0.001c-0.018-0-0.040-0-0.061-0-0.809 0-1.582 0.154-2.292 0.434l0.042-0.015c-0.701 0.274-1.303 0.659-1.813 1.14l0.003-0.003c-0.487 0.473-0.905 1.013-1.241 1.606l-0.019 0.035c-0.315 0.541-0.599 1.168-0.816 1.825l-0.020 0.071c-0.183 0.552-0.356 1.236-0.483 1.936l-0.015 0.097c-0.11 0.562-0.202 1.255-0.255 1.959l-0.004 0.064c-0.044 0.617-0.066 1.249-0.066 1.891-0.003 0.071-0.005 0.153-0.005 0.236 0 1.481 0.606 2.82 1.583 3.784l0.001 0.001c1.006 0.92 2.352 1.484 3.829 1.484 0.084 0 0.167-0.002 0.25-0.005l-0.012 0h15.407c0.071 0.003 0.154 0.005 0.238 0.005 1.477 0 2.822-0.564 3.832-1.488l-0.004 0.004c0.978-0.964 1.583-2.303 1.583-3.783 0-0.083-0.002-0.166-0.006-0.249l0 0.012c0-0.645-0.022-1.281-0.065-1.89z"></path>
</symbol>
<symbol id="icon-arrow-down" viewBox="0 0 54 32">
<path fill="#fff" style="fill: var(--color1, #fff)" opacity="0.5" d="M53.313 2.675l-1.775-1.786c-0.537-0.534-1.278-0.864-2.095-0.864s-1.558 0.33-2.096 0.865l-20.262 20.244-20.266-20.266c-0.537-0.534-1.278-0.864-2.095-0.864s-1.558 0.33-2.096 0.865l-1.775 1.775c-0.536 0.536-0.867 1.277-0.867 2.095s0.331 1.559 0.867 2.095l-0-0 24.131 24.219c0.53 0.563 1.271 0.922 2.096 0.951l0.005 0c0.827-0.032 1.565-0.39 2.092-0.95l0.001-0.002 24.109-24.156c0.545-0.542 0.882-1.293 0.882-2.122 0-0.003 0-0.006 0-0.008v0c0-0.002 0-0.004 0-0.005 0-0.813-0.327-1.549-0.857-2.085l0 0z"></path>
</symbol>
<symbol id="icon-rental" viewBox="0 0 32 32">
<path d="M18.712 15.886c0.057-1.005-0.447-1.96-1.31-2.48s-1.942-0.52-2.804 0c-0.863 0.52-1.367 1.474-1.31 2.48 1.802-0.206 3.622-0.206 5.424 0z"></path>
<path d="M20.29 17.215c-2.835-0.536-5.745-0.536-8.58 0-0.076 0.012-0.049-0.335-0.049 6.107 0 0.016 0.016 0.038 0.049 0.043 2.835 0.537 5.745 0.537 8.58 0 0.076-0.012 0.049 0.362 0.049-6.102-0.002-0.026-0.023-0.046-0.049-0.049zM18.587 18.788l-2.712 3.254c-0.103 0.125-0.256 0.196-0.418 0.195-0.22 0-0.131 0.006-1.925-1.177-0.218-0.176-0.267-0.489-0.112-0.722s0.462-0.311 0.709-0.178l1.226 0.814 2.397-2.88c0.124-0.149 0.318-0.221 0.509-0.188s0.35 0.165 0.418 0.347c0.067 0.182 0.032 0.386-0.092 0.535z"></path>
<path d="M24.678 9.763c-0.542-0.542-5.424-0.542-5.424-0.542v-1.085c0-1.198-0.971-2.17-2.169-2.17h-2.169c-1.198 0-2.169 0.971-2.169 2.17v1.085s-4.881 0-5.424 0.542-3.254 6.508-3.797 7.051c-1.013 1.013-2.712 2.897-2.712 4.339 0 1.627 0.542 2.712 0.542 4.339v4.881c0 0.899 0.729 1.627 1.627 1.627h1.085c0.899 0 1.627-0.729 1.627-1.627v-1.627s3.797 1.085 10.305 1.085 10.305-1.085 10.305-1.085v1.627c0 0.899 0.729 1.627 1.627 1.627h1.085c0.899 0 1.627-0.729 1.627-1.627v-4.881c0-1.562 0.499-2.625 0.537-4.155 0.136-1.494-1.643-3.46-2.706-4.523-0.542-0.542-3.254-6.508-3.797-7.051zM16 8.136c0.599 0 1.085 0.486 1.085 1.085s-0.486 1.085-1.085 1.085-1.085-0.486-1.085-1.085c0.002-0.598 0.486-1.083 1.085-1.085zM8.613 23.561c-0.093 0.187-0.285 0.305-0.494 0.304-5.505-0.087-5.332-2.376-5.001-3.357 0.094-0.256 0.363-0.402 0.629-0.342 1.453 0.269 2.926 0.416 4.404 0.439 0.199 0.008 0.379 0.121 0.472 0.298 0.437 0.833 0.433 1.828-0.011 2.658zM21.424 23.322c-0.004 0.546-0.395 1.013-0.933 1.112-2.968 0.557-6.014 0.557-8.982 0-0.537-0.099-0.929-0.565-0.933-1.112v-6.058c0.004-0.546 0.395-1.013 0.933-1.112 0.228-0.043 0.461-0.087 0.694-0.119v-0.304c0.005-1.533 0.931-2.914 2.348-3.499s3.047-0.262 4.134 0.82c0.717 0.707 1.117 1.673 1.112 2.679v0.304c0.233 0.033 0.466 0.076 0.694 0.119 0.537 0.099 0.929 0.565 0.933 1.112zM28.881 20.507c0.087 0.255 0.133 0.522 0.136 0.792 0 1.085-0.83 2.495-5.136 2.565-0.209 0.001-0.401-0.117-0.494-0.304-0.444-0.829-0.448-1.825-0.011-2.658 0.092-0.177 0.272-0.291 0.472-0.298 1.478-0.023 2.951-0.17 4.404-0.439 0.266-0.060 0.535 0.086 0.629 0.342z"></path>
<path d="M23.393 4.481c0.199 0.211 0.528 0.229 0.748 0.040s0.253-0.517 0.075-0.745c-2.058-2.396-5.059-3.774-8.217-3.774s-6.159 1.378-8.217 3.774c-0.178 0.229-0.145 0.557 0.075 0.745s0.549 0.171 0.748-0.040c1.852-2.156 4.552-3.396 7.394-3.396s5.542 1.24 7.394 3.396z"></path>
<path d="M9.7 5.711c-0.122 0.15-0.155 0.355-0.086 0.536s0.23 0.311 0.421 0.342c0.191 0.031 0.385-0.043 0.507-0.194 1.335-1.644 3.34-2.598 5.458-2.598s4.123 0.955 5.458 2.598c0.122 0.15 0.315 0.224 0.507 0.194s0.352-0.161 0.421-0.342c0.069-0.181 0.037-0.385-0.086-0.536-1.541-1.897-3.856-2.999-6.3-2.999s-4.759 1.102-6.3 2.999z"></path>
</symbol>
<symbol id="icon-clock1" viewBox="0 0 32 32">
<path d="M28.633 8.42c-0.663 0.321-0.94 1.118-0.619 1.781 0.876 1.81 1.32 3.76 1.32 5.799 0 7.352-5.981 13.333-13.333 13.333s-13.333-5.981-13.333-13.333 5.981-13.333 13.333-13.333c3.047 0 5.909 0.995 8.277 2.877 0.575 0.459 1.415 0.363 1.873-0.214s0.363-1.415-0.214-1.873c-2.804-2.229-6.333-3.456-9.937-3.456-8.822 0-16 7.178-16 16s7.178 16 16 16 16-7.178 16-16c0-2.445-0.534-4.787-1.587-6.961-0.32-0.664-1.12-0.941-1.781-0.619z"></path>
<path d="M16 5.333c-0.736 0-1.333 0.597-1.333 1.333v9.333c0 0.736 0.597 1.333 1.333 1.333h6.667c0.736 0 1.333-0.597 1.333-1.333s-0.597-1.333-1.333-1.333h-5.333v-8c0-0.736-0.597-1.333-1.333-1.333z"></path>
</symbol>
</defs>
</svg>
