<svg xmlns="http://www.w3.org/2000/svg" width="14.802" height="8.743" viewBox="0 0 14.802 8.743">
  <g id="down-arrow_1_" data-name="down-arrow (1)" transform="translate(0 -100.698)" opacity="0.5">
    <g id="Group_10575" data-name="Group 10575" transform="translate(0 100.698)">
      <path id="Path_5879" data-name="Path 5879" d="M14.566,101.429l-.485-.488a.812.812,0,0,0-1.145,0L7.4,106.472l-5.537-5.537a.812.812,0,0,0-1.145,0l-.485.485a.81.81,0,0,0,0,1.145l6.593,6.617a.828.828,0,0,0,.574.26h0a.827.827,0,0,0,.572-.26l6.587-6.6A.818.818,0,0,0,14.8,102,.81.81,0,0,0,14.566,101.429Z" transform="translate(0 -100.698)" fill="#fff"/>
    </g>
  </g>
</svg>
