<svg xmlns="http://www.w3.org/2000/svg" width="64.536" height="25.272" viewBox="0 0 64.536 25.272">
  <g id="car-two" transform="translate(0 -155.76)">
    <g id="Group_10583" data-name="Group 10583" transform="translate(0 155.76)">
      <g id="Group_10582" data-name="Group 10582">
        <path id="Path_5886" data-name="Path 5886" d="M54.365,175.926h7.16V172.9a9.009,9.009,0,0,0-1.168-4.424l-.007-.015c-.006-.014-.016-.028-.022-.042s-.018-.04-.03-.061l-.011-.019a7.014,7.014,0,0,0-1.419-1.861,9.058,9.058,0,0,0-6.418-2.652H43.833l-7.058-8.067H7.3l-.756,3.025-.5,2.017-.787,3.152a3.019,3.019,0,0,0-2.205,2.9v9.075H9.194a5.037,5.037,0,0,0,1.992,3.059L0,179.015l.006,2.017,24.2-.064-.006-2.017-7.1.018a5.038,5.038,0,0,0,1.97-3.043H44.485a5.037,5.037,0,0,0,1.944,3.025H32.269v2.017H58.486v-2.017H52.421A5.042,5.042,0,0,0,54.365,175.926ZM57.4,167.86H54.884l-2-2A7.044,7.044,0,0,1,57.4,167.86ZM29.258,157.777h6.6l5.294,6.05H29.258Zm0,8.067H42.038l-1.44,5.042H29.258Zm-9.3-8.067h7.279v6.05H18.45Zm7.279,8.067v5.042H21.777l-2.88-5.042ZM8.871,157.777h9.012l-1.512,6.05H10.385l1.26-5.042H8.62ZM8.115,160.8h.946L8.3,163.827H7.359Zm6.019,17.141a3.025,3.025,0,1,1,3.025-3.025A3.029,3.029,0,0,1,14.134,177.943Zm35.291,0a3.025,3.025,0,1,1,3.025-3.025A3.029,3.029,0,0,1,49.425,177.943Zm2.978-7.071c-.1-.074-.2-.144-.3-.21a5.07,5.07,0,0,0-.5-.271c-.107-.051-.211-.106-.322-.15a4.829,4.829,0,0,0-.6-.187c-.1-.026-.195-.061-.3-.081a4.789,4.789,0,0,0-1.916,0c-.1.02-.2.054-.3.081a5.2,5.2,0,0,0-.6.187c-.111.044-.215.1-.322.15a5.068,5.068,0,0,0-.5.271c-.1.066-.2.137-.3.21a5.239,5.239,0,0,0-.426.351c-.091.084-.178.167-.263.257a5.078,5.078,0,0,0-.357.433c-.072.095-.145.188-.21.287a4.884,4.884,0,0,0-.29.535c-.045.094-.1.183-.138.279a5.031,5.031,0,0,0-.261.839c0,.018-.012.035-.016.053,0,0,0,0,0,0H19.073s0,0,0,0c0-.018-.012-.035-.016-.053a5,5,0,0,0-.261-.839c-.039-.1-.093-.186-.138-.279a5.076,5.076,0,0,0-.29-.535c-.065-.1-.138-.193-.21-.287a5.244,5.244,0,0,0-.357-.433c-.085-.09-.172-.173-.263-.257a4.915,4.915,0,0,0-.426-.351c-.1-.074-.2-.144-.3-.21a5.069,5.069,0,0,0-.5-.271c-.107-.051-.211-.106-.322-.15a4.829,4.829,0,0,0-.6-.187c-.1-.026-.195-.061-.3-.081a4.789,4.789,0,0,0-1.916,0c-.1.02-.2.054-.3.081a5.2,5.2,0,0,0-.6.187c-.111.044-.215.1-.322.15a5.069,5.069,0,0,0-.5.271c-.1.066-.2.137-.3.21a5.24,5.24,0,0,0-.426.351c-.091.084-.178.167-.263.257a5.079,5.079,0,0,0-.357.433c-.072.095-.145.188-.21.287a4.884,4.884,0,0,0-.29.535c-.045.094-.1.183-.138.279a5.031,5.031,0,0,0-.261.839c0,.018-.012.035-.016.053,0,0,0,0,0,0H5.059v-7.058a1.009,1.009,0,0,1,1.008-1.008H16.575l4.034,7.058H42.119l2.018-7.058h5.881l4.033,4.033h4.773a6.888,6.888,0,0,1,.686,3.025v1.008H54.365s0,0,0,0c0-.018-.012-.035-.016-.053a5,5,0,0,0-.261-.839c-.039-.1-.093-.186-.138-.279a5.077,5.077,0,0,0-.29-.535c-.065-.1-.138-.193-.21-.287a5.244,5.244,0,0,0-.357-.433c-.085-.09-.172-.173-.263-.257A4.916,4.916,0,0,0,52.4,170.872Z" transform="translate(0 -155.76)" fill="#109cf6"/>
      </g>
    </g>
    <g id="Group_10585" data-name="Group 10585" transform="translate(26.219 178.951)">
      <g id="Group_10584" data-name="Group 10584" transform="translate(0 0)">
        <rect id="Rectangle_1920" data-name="Rectangle 1920" width="4.033" height="2.017" fill="#109cf6"/>
      </g>
    </g>
    <g id="Group_10587" data-name="Group 10587" transform="translate(60.502 178.951)">
      <g id="Group_10586" data-name="Group 10586" transform="translate(0 0)">
        <rect id="Rectangle_1921" data-name="Rectangle 1921" width="4.033" height="2.017" fill="#109cf6"/>
      </g>
    </g>
    <g id="Group_10589" data-name="Group 10589" transform="translate(13.121 173.91)">
      <g id="Group_10588" data-name="Group 10588">
        <rect id="Rectangle_1922" data-name="Rectangle 1922" width="2.017" height="2.017" fill="#109cf6"/>
      </g>
    </g>
    <g id="Group_10591" data-name="Group 10591" transform="translate(48.412 173.91)">
      <g id="Group_10590" data-name="Group 10590">
        <rect id="Rectangle_1923" data-name="Rectangle 1923" width="2.017" height="2.017" fill="#109cf6"/>
      </g>
    </g>
  </g>
</svg>
